<?xml version="1.0" encoding="utf-8"?>
<!-- Generator: Adobe Illustrator 16.0.3, SVG Export Plug-In . SVG Version: 6.00 Build 0)  -->
<!DOCTYPE svg PUBLIC "-//W3C//DTD SVG 1.1//EN" "http://www.w3.org/Graphics/SVG/1.1/DTD/svg11.dtd">
<svg version="1.1" xmlns="http://www.w3.org/2000/svg" xmlns:xlink="http://www.w3.org/1999/xlink" x="0px" y="0px" width="1280px"
	 height="800px" viewBox="0 0 1280 800" enable-background="new 0 0 1280 800" xml:space="preserve">
<g id="Capa_1">
</g>
<g id="Capa_2">
	<linearGradient id="SVGID_1_" gradientUnits="userSpaceOnUse" x1="640.0005" y1="806.874" x2="640.0004" y2="-16.5175">
		<stop  offset="0" style="stop-color:#C2EBFF"/>
		<stop  offset="0.5304" style="stop-color:#C0EAFF"/>
		<stop  offset="0.7214" style="stop-color:#B9E6FF"/>
		<stop  offset="0.8575" style="stop-color:#AEDEFF"/>
		<stop  offset="0.9668" style="stop-color:#9DD4FF"/>
		<stop  offset="1" style="stop-color:#96D0FF"/>
	</linearGradient>
	<rect fill="url(#SVGID_1_)" width="1280" height="800"/>
	<path fill="#8FC44B" d="M0,579.688h598.3c-26.337-13.617-59.618-24.059-96.69-29.158c-13.79-18.145-34.105-35.119-60.814-49.636
		c-58.99-32.067-146.454-51.229-235.404-53.348c3.617-5.313,5.463-10.891,4.999-16.481c-1.935-23.398-39.161-44.386-85.686-51.668
		C105.354,347.642,59.247,318.341,0,299.538V579.688z"/>
	<path fill="#8FC44B" d="M1280,596.996H679.205c26.446-11.262,59.867-19.891,97.094-24.11
		c13.847-15.003,34.246-29.041,61.066-41.042c59.236-26.515,147.065-42.357,236.386-44.111c-3.632-4.392-5.486-9.005-5.019-13.628
		c1.941-19.347,39.323-36.702,86.042-42.725c19.432-26.259,65.73-50.483,125.226-66.031V596.996z"/>
	<rect y="616.396" fill="#A8D941" width="1280.326" height="183.604"/>
	<g>
		<path fill="#72B228" d="M0,616.396h947.528c-16.93-30.036-40.125-58.018-66.666-83.466H0V616.396z"/>
	</g>
	<g>
		<path fill="#72B228" d="M1280.326,586.693c-0.326-33.019,0-17.828-0.326-56.622l-706.792,2.859
			c-26.514,9.432-53.345,18.04-80.743,25.063c-89.893,23.042-183.712,16.65-275.019,28.97c-37.211,5.02-73.969,15.035-108.93,29.433
			h1171.809V586.693z"/>
	</g>
	<g>
		<path fill="#8FC44B" d="M190.997,535.45c13.163-2.327,25.741-7.081,34.381-11.631c22.246,10.806,75.367,8.905,91.626-3.278
			c13.688,7.354,50.92,4.599,55.95-4.137c30.158,3.994,67.437-3.054,76.433-14.449c-3.474,9.821,35.854,15.061,58.28,9.673
			c22.424-5.385,30.598-15.879,37.81-25.414c7.211-9.54,17.28-19.996,41.142-24.456c27.772-5.188,63.115,0.583,81.547,9.865
			c18.433,9.289,24.105,21.123,29.263,32.489c16.741-8.73,57.362-8.76,74.195-0.054c6.914,3.575,11.47,8.562,22.993,9.608
			c27.21,2.471,35.345-13.022,63.485-7.777c11.711,2.185,27.596,19.526,32.22,29.561H190.997z"/>
	</g>
	<linearGradient id="SVGID_2_" gradientUnits="userSpaceOnUse" x1="639.9995" y1="643.1367" x2="639.9995" y2="805.3591">
		<stop  offset="0" style="stop-color:#FFB06E"/>
		<stop  offset="0.6004" style="stop-color:#F1C973;stop-opacity:0.3996"/>
		<stop  offset="1" style="stop-color:#EAD475;stop-opacity:0"/>
	</linearGradient>
	<path opacity="0.5" fill="url(#SVGID_2_)" d="M1280,622.59c0,0-396.114-80.152-639.998-80.152C401.208,542.438,0,622.59,0,622.59
		V800h1280V622.59z"/>
	<linearGradient id="SVGID_3_" gradientUnits="userSpaceOnUse" x1="640.0005" y1="812.3555" x2="640.0005" y2="638.8984">
		<stop  offset="0" style="stop-color:#EAD475;stop-opacity:0"/>
		<stop  offset="0.8368" style="stop-color:#F4C47F"/>
	</linearGradient>
	<path opacity="0.7" fill="url(#SVGID_3_)" d="M1113.104,662.062c32.081-6.645,50.05-14.071,50.05-21.913
		c0-28.308-234.002-51.252-522.659-51.252c-288.655,0-522.659,22.944-522.659,51.252c0,7.118,14.813,13.9,41.56,20.064
		C206.189,671.534,577.192,765.547,0,765.547V800h396.119h487.767H1280v-34.453C727.021,765.547,1044.358,679.256,1113.104,662.062z
		"/>
	
		<radialGradient id="SVGID_4_" cx="920.3574" cy="752.1719" r="67.6648" gradientTransform="matrix(1.7894 0.0037 -7.370212e-005 0.6092 -1334.1188 107.2428)" gradientUnits="userSpaceOnUse">
		<stop  offset="0.06" style="stop-color:#D1A359"/>
		<stop  offset="0.3884" style="stop-color:#D4A65C;stop-opacity:0.6507"/>
		<stop  offset="0.665" style="stop-color:#DEAF67;stop-opacity:0.3564"/>
		<stop  offset="0.9221" style="stop-color:#EEBE78;stop-opacity:0.0829"/>
		<stop  offset="1" style="stop-color:#F4C47F;stop-opacity:0"/>
	</radialGradient>
	<path fill="url(#SVGID_4_)" d="M427.427,568.866c0-14.06-51.358-25.446-114.713-25.446C249.358,543.42,198,554.807,198,568.866
		c0,14.051,51.358,25.444,114.714,25.444C376.069,594.311,427.427,582.917,427.427,568.866z"/>
	
		<radialGradient id="SVGID_5_" cx="1303.3535" cy="752.1719" r="67.6648" gradientTransform="matrix(1.7894 0.0037 -7.370212e-005 0.6092 -1334.1187 105.836)" gradientUnits="userSpaceOnUse">
		<stop  offset="0.06" style="stop-color:#D1A359"/>
		<stop  offset="0.3884" style="stop-color:#D4A65C;stop-opacity:0.6507"/>
		<stop  offset="0.665" style="stop-color:#DEAF67;stop-opacity:0.3564"/>
		<stop  offset="0.9221" style="stop-color:#EEBE78;stop-opacity:0.0829"/>
		<stop  offset="1" style="stop-color:#F4C47F;stop-opacity:0"/>
	</radialGradient>
	<path fill="url(#SVGID_5_)" d="M1112.761,568.866c0-14.06-51.36-25.446-114.716-25.446c-63.354,0-114.714,11.387-114.714,25.446
		c0,14.051,51.36,25.444,114.714,25.444C1061.4,594.311,1112.761,582.917,1112.761,568.866z"/>
	
		<radialGradient id="SVGID_6_" cx="936.5703" cy="755.5117" r="59.803" gradientTransform="matrix(3.2442 0.0037 -1.336227e-004 0.6092 -2361.4485 129.7658)" gradientUnits="userSpaceOnUse">
		<stop  offset="0" style="stop-color:#D1A359"/>
		<stop  offset="0.3493" style="stop-color:#D4A65C;stop-opacity:0.6507"/>
		<stop  offset="0.6436" style="stop-color:#DEAF67;stop-opacity:0.3564"/>
		<stop  offset="0.9171" style="stop-color:#EEBE78;stop-opacity:0.0829"/>
		<stop  offset="1" style="stop-color:#F4C47F;stop-opacity:0"/>
	</radialGradient>
	<path fill="url(#SVGID_6_)" d="M884.855,593.483c0-14.058-93.115-25.444-207.981-25.444c-114.867,0-207.985,11.387-207.985,25.444
		c0,14.053,93.118,25.446,207.985,25.446C791.74,618.93,884.855,607.536,884.855,593.483z"/>
	
		<radialGradient id="SVGID_7_" cx="936.8887" cy="754.1836" r="59.8021" gradientTransform="matrix(3.2442 0.0037 -1.336227e-004 0.6092 -2361.4487 120.7843)" gradientUnits="userSpaceOnUse">
		<stop  offset="0" style="stop-color:#D1A359"/>
		<stop  offset="0.3493" style="stop-color:#D4A65C;stop-opacity:0.6507"/>
		<stop  offset="0.6436" style="stop-color:#DEAF67;stop-opacity:0.3564"/>
		<stop  offset="0.9171" style="stop-color:#EEBE78;stop-opacity:0.0829"/>
		<stop  offset="1" style="stop-color:#F4C47F;stop-opacity:0"/>
	</radialGradient>
	<path fill="url(#SVGID_7_)" d="M885.885,583.694c0-14.06-93.118-25.453-207.984-25.453s-207.981,11.394-207.981,25.453
		c0,14.052,93.115,25.445,207.981,25.445S885.885,597.746,885.885,583.694z"/>
	<g>
		<g>
			<path fill="#F7E8A1" d="M357.887,682.706c1.286,6.966,2.63,14.036,3.394,21.665c0.813,8.111,0.337,15.521,0.601,23.619
				c0.15,4.72,2.167,5.448,2.758,1.093c2.163-15.938-1.517-39.468-6.478-47.191C357.983,681.61,357.789,682.173,357.887,682.706
				L357.887,682.706z"/>
		</g>
		<g>
			<path fill="#F7E8A1" d="M369.2,697.727c-0.894,4.839-1.83,9.755-2.362,15.06c-0.564,5.645-0.231,10.789-0.414,16.419
				c-0.108,3.276-1.51,3.787-1.921,0.756c-1.502-11.078,1.054-27.432,4.502-32.802C369.131,696.965,369.266,697.359,369.2,697.727
				L369.2,697.727z"/>
		</g>
	</g>
	<g>
		<g>
			<path fill="#F7E8A1" d="M389.138,682.706c1.286,6.966,2.633,14.036,3.399,21.665c0.81,8.111,0.335,15.521,0.596,23.619
				c0.152,4.72,2.17,5.448,2.761,1.093c2.163-15.938-1.517-39.468-6.475-47.191C389.236,681.61,389.039,682.173,389.138,682.706
				L389.138,682.706z"/>
		</g>
		<g>
			<path fill="#F7E8A1" d="M400.453,697.727c-0.896,4.839-1.83,9.755-2.362,15.06c-0.564,5.645-0.234,10.789-0.417,16.419
				c-0.104,3.276-1.507,3.787-1.918,0.756c-1.502-11.078,1.054-27.432,4.502-32.802
				C400.384,696.965,400.521,697.359,400.453,697.727L400.453,697.727z"/>
		</g>
	</g>
	<g>
		<g>
			<path fill="#F7E8A1" d="M409.107,694.424c-0.98,5.305-2.005,10.695-2.588,16.513c-0.618,6.184-0.256,11.827-0.456,18.004
				c-0.118,3.591-1.655,4.15-2.104,0.825c-1.65-12.142,1.155-30.081,4.936-35.967C409.034,693.58,409.182,694.014,409.107,694.424
				L409.107,694.424z"/>
		</g>
		<g>
			<path fill="#F7E8A1" d="M400.484,705.869c0.683,3.692,1.395,7.436,1.801,11.481c0.429,4.297,0.177,8.219,0.315,12.511
				c0.081,2.504,1.15,2.892,1.463,0.583c1.147-8.444-0.803-20.912-3.431-25.007C400.536,705.285,400.433,705.59,400.484,705.869
				L400.484,705.869z"/>
		</g>
	</g>
	<g>
		<g>
			<linearGradient id="SVGID_8_" gradientUnits="userSpaceOnUse" x1="334.2407" y1="542.8955" x2="334.2407" y2="601.3573">
				<stop  offset="0.0013" style="stop-color:#EAD475"/>
				<stop  offset="0.8368" style="stop-color:#F4C47F"/>
			</linearGradient>
			<path fill="url(#SVGID_8_)" d="M330.558,548.799c1.286,6.959,2.635,14.027,3.399,21.665c0.81,8.113,0.335,15.521,0.596,23.619
				c0.153,4.713,2.17,5.448,2.764,1.086c2.163-15.938-1.517-39.468-6.478-47.185C330.656,547.695,330.459,548.266,330.558,548.799
				L330.558,548.799z"/>
		</g>
		<g>
			<linearGradient id="SVGID_9_" gradientUnits="userSpaceOnUse" x1="339.3149" y1="542.8984" x2="339.3149" y2="601.3572">
				<stop  offset="0.0013" style="stop-color:#EAD475"/>
				<stop  offset="0.8368" style="stop-color:#F4C47F"/>
			</linearGradient>
			<path fill="url(#SVGID_9_)" d="M341.873,563.819c-0.894,4.838-1.83,9.754-2.36,15.06c-0.566,5.635-0.236,10.781-0.418,16.412
				c-0.104,3.282-1.507,3.793-1.916,0.762c-1.505-11.075,1.054-27.431,4.5-32.801C341.804,563.057,341.942,563.445,341.873,563.819
				L341.873,563.819z"/>
		</g>
	</g>
	<g>
		<g>
			<linearGradient id="SVGID_10_" gradientUnits="userSpaceOnUse" x1="365.4937" y1="542.8955" x2="365.4937" y2="601.3573">
				<stop  offset="0.0013" style="stop-color:#EAD475"/>
				<stop  offset="0.8368" style="stop-color:#F4C47F"/>
			</linearGradient>
			<path fill="url(#SVGID_10_)" d="M361.813,548.799c1.286,6.959,2.63,14.027,3.394,21.665c0.813,8.113,0.338,15.521,0.599,23.619
				c0.153,4.713,2.17,5.448,2.761,1.086c2.163-15.938-1.517-39.468-6.478-47.185C361.909,547.695,361.715,548.266,361.813,548.799
				L361.813,548.799z"/>
		</g>
		<g>
			<linearGradient id="SVGID_11_" gradientUnits="userSpaceOnUse" x1="370.5659" y1="542.8984" x2="370.5659" y2="601.3572">
				<stop  offset="0.0013" style="stop-color:#EAD475"/>
				<stop  offset="0.8368" style="stop-color:#F4C47F"/>
			</linearGradient>
			<path fill="url(#SVGID_11_)" d="M373.126,563.819c-0.895,4.838-1.83,9.754-2.362,15.06c-0.564,5.635-0.231,10.781-0.414,16.412
				c-0.108,3.282-1.51,3.793-1.921,0.762c-1.502-11.075,1.054-27.431,4.502-32.801C373.057,563.057,373.192,563.445,373.126,563.819
				L373.126,563.819z"/>
		</g>
	</g>
	<g>
		<g>
			<linearGradient id="SVGID_12_" gradientUnits="userSpaceOnUse" x1="378.9751" y1="542.8994" x2="378.9751" y2="601.355">
				<stop  offset="0.0013" style="stop-color:#EAD475"/>
				<stop  offset="0.8368" style="stop-color:#F4C47F"/>
			</linearGradient>
			<path fill="url(#SVGID_12_)" d="M381.781,560.51c-0.98,5.304-2.007,10.695-2.589,16.518c-0.621,6.185-0.256,11.828-0.456,17.996
				c-0.116,3.6-1.652,4.154-2.106,0.835c-1.647-12.149,1.158-30.079,4.936-35.967C381.704,559.675,381.857,560.106,381.781,560.51
				L381.781,560.51z"/>
		</g>
		<g>
			<linearGradient id="SVGID_13_" gradientUnits="userSpaceOnUse" x1="375.1074" y1="542.8984" x2="375.1074" y2="601.3558">
				<stop  offset="0.0013" style="stop-color:#EAD475"/>
				<stop  offset="0.8368" style="stop-color:#F4C47F"/>
			</linearGradient>
			<path fill="url(#SVGID_13_)" d="M373.158,571.961c0.68,3.687,1.394,7.436,1.798,11.481c0.431,4.297,0.18,8.22,0.318,12.512
				c0.082,2.497,1.15,2.885,1.463,0.575c1.146-8.444-0.803-20.912-3.431-24.999C373.209,571.377,373.104,571.682,373.158,571.961
				L373.158,571.961z"/>
		</g>
	</g>
	<g>
		<g>
			<linearGradient id="SVGID_14_" gradientUnits="userSpaceOnUse" x1="558.7368" y1="571.9365" x2="558.7368" y2="630.4017">
				<stop  offset="0.0013" style="stop-color:#EAD475"/>
				<stop  offset="0.8368" style="stop-color:#F4C47F"/>
			</linearGradient>
			<path fill="url(#SVGID_14_)" d="M555.054,577.842c1.288,6.96,2.635,14.028,3.399,21.667c0.813,8.113,0.335,15.521,0.596,23.617
				c0.153,4.714,2.172,5.449,2.763,1.088c2.163-15.938-1.517-39.469-6.478-47.192C555.153,576.74,554.956,577.309,555.054,577.842
				L555.054,577.842z"/>
		</g>
		<g>
			<linearGradient id="SVGID_15_" gradientUnits="userSpaceOnUse" x1="563.811" y1="571.9385" x2="563.811" y2="630.4022">
				<stop  offset="0.0013" style="stop-color:#EAD475"/>
				<stop  offset="0.8368" style="stop-color:#F4C47F"/>
			</linearGradient>
			<path fill="url(#SVGID_15_)" d="M566.369,592.856c-0.894,4.846-1.83,9.762-2.359,15.067c-0.566,5.637-0.236,10.781-0.419,16.412
				c-0.104,3.282-1.507,3.793-1.916,0.762c-1.505-11.076,1.054-27.431,4.5-32.801C566.3,592.095,566.438,592.489,566.369,592.856
				L566.369,592.856z"/>
		</g>
	</g>
	<g>
		<g>
			<linearGradient id="SVGID_16_" gradientUnits="userSpaceOnUse" x1="572.2183" y1="571.9414" x2="572.2183" y2="630.4">
				<stop  offset="0.0013" style="stop-color:#EAD475"/>
				<stop  offset="0.8368" style="stop-color:#F4C47F"/>
			</linearGradient>
			<path fill="url(#SVGID_16_)" d="M575.024,589.554c-0.98,5.305-2.005,10.696-2.589,16.519c-0.618,6.184-0.256,11.828-0.456,17.996
				c-0.116,3.6-1.655,4.152-2.104,0.837c-1.65-12.151,1.155-30.081,4.936-35.971C574.95,588.72,575.098,589.151,575.024,589.554
				L575.024,589.554z"/>
		</g>
		<g>
			<linearGradient id="SVGID_17_" gradientUnits="userSpaceOnUse" x1="568.3521" y1="571.9424" x2="568.3521" y2="630.3998">
				<stop  offset="0.0013" style="stop-color:#EAD475"/>
				<stop  offset="0.8368" style="stop-color:#F4C47F"/>
			</linearGradient>
			<path fill="url(#SVGID_17_)" d="M566.401,601.005c0.682,3.687,1.396,7.437,1.8,11.476c0.429,4.304,0.177,8.229,0.315,12.519
				c0.081,2.496,1.15,2.884,1.463,0.575c1.148-8.446-0.803-20.912-3.431-25C566.453,600.422,566.35,600.726,566.401,601.005
				L566.401,601.005z"/>
		</g>
	</g>
	<g>
		<g>
			<linearGradient id="SVGID_18_" gradientUnits="userSpaceOnUse" x1="667.4316" y1="577.7666" x2="667.4316" y2="636.2282">
				<stop  offset="0.0013" style="stop-color:#EAD475"/>
				<stop  offset="0.8368" style="stop-color:#F4C47F"/>
			</linearGradient>
			<path fill="url(#SVGID_18_)" d="M670.238,595.384c-0.98,5.307-2.007,10.695-2.589,16.512c-0.62,6.185-0.256,11.827-0.455,18.004
				c-0.118,3.591-1.655,4.154-2.106,0.836c-1.647-12.151,1.158-30.089,4.937-35.978C670.162,594.55,670.313,594.974,670.238,595.384
				L670.238,595.384z"/>
		</g>
		<g>
			<linearGradient id="SVGID_19_" gradientUnits="userSpaceOnUse" x1="663.5645" y1="577.7666" x2="663.5645" y2="636.2305">
				<stop  offset="0.0013" style="stop-color:#EAD475"/>
				<stop  offset="0.8368" style="stop-color:#F4C47F"/>
			</linearGradient>
			<path fill="url(#SVGID_19_)" d="M661.613,606.828c0.682,3.692,1.396,7.437,1.8,11.482c0.432,4.297,0.18,8.228,0.318,12.511
				c0.081,2.504,1.149,2.894,1.463,0.583c1.146-8.443-0.803-20.911-3.431-25.007C661.667,606.255,661.562,606.549,661.613,606.828
				L661.613,606.828z"/>
		</g>
	</g>
	<g>
		<g>
			<linearGradient id="SVGID_20_" gradientUnits="userSpaceOnUse" x1="749.1621" y1="571.9365" x2="749.1621" y2="630.4017">
				<stop  offset="0.0013" style="stop-color:#EAD475"/>
				<stop  offset="0.8368" style="stop-color:#F4C47F"/>
			</linearGradient>
			<path fill="url(#SVGID_20_)" d="M745.48,577.842c1.288,6.96,2.633,14.028,3.396,21.667c0.813,8.113,0.337,15.521,0.598,23.617
				c0.153,4.714,2.17,5.449,2.762,1.088c2.162-15.938-1.518-39.469-6.476-47.192C745.578,576.74,745.384,577.309,745.48,577.842
				L745.48,577.842z"/>
		</g>
		<g>
			<linearGradient id="SVGID_21_" gradientUnits="userSpaceOnUse" x1="754.2363" y1="571.9385" x2="754.2363" y2="630.4022">
				<stop  offset="0.0013" style="stop-color:#EAD475"/>
				<stop  offset="0.8368" style="stop-color:#F4C47F"/>
			</linearGradient>
			<path fill="url(#SVGID_21_)" d="M756.795,592.856c-0.894,4.846-1.83,9.762-2.361,15.067c-0.564,5.637-0.234,10.781-0.414,16.412
				c-0.108,3.282-1.51,3.793-1.922,0.762c-1.502-11.076,1.055-27.431,4.503-32.801C756.727,592.095,756.864,592.489,756.795,592.856
				L756.795,592.856z"/>
		</g>
	</g>
	<g>
		<g>
			<linearGradient id="SVGID_22_" gradientUnits="userSpaceOnUse" x1="762.6445" y1="571.9414" x2="762.6445" y2="630.4">
				<stop  offset="0.0013" style="stop-color:#EAD475"/>
				<stop  offset="0.8368" style="stop-color:#F4C47F"/>
			</linearGradient>
			<path fill="url(#SVGID_22_)" d="M765.45,589.554c-0.98,5.305-2.008,10.696-2.589,16.519c-0.618,6.184-0.256,11.828-0.455,17.996
				c-0.116,3.6-1.653,4.152-2.104,0.837c-1.65-12.151,1.154-30.081,4.936-35.971C765.376,588.72,765.526,589.151,765.45,589.554
				L765.45,589.554z"/>
		</g>
		<g>
			<linearGradient id="SVGID_23_" gradientUnits="userSpaceOnUse" x1="758.7773" y1="571.9424" x2="758.7773" y2="630.3998">
				<stop  offset="0.0013" style="stop-color:#EAD475"/>
				<stop  offset="0.8368" style="stop-color:#F4C47F"/>
			</linearGradient>
			<path fill="url(#SVGID_23_)" d="M756.827,601.005c0.683,3.687,1.394,7.437,1.801,11.476c0.428,4.304,0.177,8.229,0.314,12.519
				c0.082,2.496,1.15,2.884,1.464,0.575c1.145-8.446-0.804-20.912-3.432-25C756.879,600.422,756.775,600.726,756.827,601.005
				L756.827,601.005z"/>
		</g>
	</g>
	<g>
		<g>
			<linearGradient id="SVGID_24_" gradientUnits="userSpaceOnUse" x1="798.0508" y1="571.9365" x2="798.0508" y2="630.4017">
				<stop  offset="0.0013" style="stop-color:#EAD475"/>
				<stop  offset="0.8368" style="stop-color:#F4C47F"/>
			</linearGradient>
			<path fill="url(#SVGID_24_)" d="M794.37,577.842c1.288,6.96,2.633,14.028,3.396,21.667c0.813,8.113,0.338,15.521,0.599,23.617
				c0.152,4.714,2.17,5.449,2.761,1.088c2.163-15.938-1.517-39.469-6.475-47.192C794.469,576.74,794.271,577.309,794.37,577.842
				L794.37,577.842z"/>
		</g>
		<g>
			<linearGradient id="SVGID_25_" gradientUnits="userSpaceOnUse" x1="803.127" y1="571.9385" x2="803.127" y2="630.4022">
				<stop  offset="0.0013" style="stop-color:#EAD475"/>
				<stop  offset="0.8368" style="stop-color:#F4C47F"/>
			</linearGradient>
			<path fill="url(#SVGID_25_)" d="M805.686,592.856c-0.895,4.846-1.83,9.762-2.362,15.067c-0.563,5.637-0.233,10.781-0.416,16.412
				c-0.106,3.282-1.508,3.793-1.919,0.762c-1.502-11.076,1.055-27.431,4.503-32.801
				C805.616,592.095,805.754,592.489,805.686,592.856L805.686,592.856z"/>
		</g>
	</g>
	<g>
		<g>
			<linearGradient id="SVGID_26_" gradientUnits="userSpaceOnUse" x1="811.5342" y1="571.9414" x2="811.5342" y2="630.4">
				<stop  offset="0.0013" style="stop-color:#EAD475"/>
				<stop  offset="0.8368" style="stop-color:#F4C47F"/>
			</linearGradient>
			<path fill="url(#SVGID_26_)" d="M814.34,589.554c-0.979,5.305-2.007,10.696-2.588,16.519c-0.618,6.184-0.257,11.828-0.456,17.996
				c-0.115,3.6-1.652,4.152-2.105,0.837c-1.647-12.151,1.157-30.081,4.938-35.971C814.267,588.72,814.417,589.151,814.34,589.554
				L814.34,589.554z"/>
		</g>
		<g>
			<linearGradient id="SVGID_27_" gradientUnits="userSpaceOnUse" x1="807.668" y1="571.9424" x2="807.668" y2="630.3998">
				<stop  offset="0.0013" style="stop-color:#EAD475"/>
				<stop  offset="0.8368" style="stop-color:#F4C47F"/>
			</linearGradient>
			<path fill="url(#SVGID_27_)" d="M805.718,601.005c0.682,3.687,1.394,7.437,1.8,11.476c0.429,4.304,0.178,8.229,0.315,12.519
				c0.081,2.496,1.15,2.884,1.463,0.575c1.146-8.446-0.803-20.912-3.431-25C805.77,600.422,805.666,600.726,805.718,601.005
				L805.718,601.005z"/>
		</g>
	</g>
	<g>
		<g>
			<linearGradient id="SVGID_28_" gradientUnits="userSpaceOnUse" x1="1064.2988" y1="542.8955" x2="1064.2988" y2="601.3573">
				<stop  offset="0.0013" style="stop-color:#EAD475"/>
				<stop  offset="0.8368" style="stop-color:#F4C47F"/>
			</linearGradient>
			<path fill="url(#SVGID_28_)" d="M1060.617,548.799c1.285,6.959,2.633,14.027,3.396,21.665c0.813,8.113,0.337,15.521,0.598,23.619
				c0.153,4.713,2.17,5.448,2.762,1.086c2.162-15.938-1.518-39.468-6.478-47.185
				C1060.715,547.695,1060.519,548.266,1060.617,548.799L1060.617,548.799z"/>
		</g>
		<g>
			<linearGradient id="SVGID_29_" gradientUnits="userSpaceOnUse" x1="1069.3721" y1="542.8984" x2="1069.3721" y2="601.3572">
				<stop  offset="0.0013" style="stop-color:#EAD475"/>
				<stop  offset="0.8368" style="stop-color:#F4C47F"/>
			</linearGradient>
			<path fill="url(#SVGID_29_)" d="M1071.932,563.819c-0.896,4.838-1.832,9.754-2.361,15.06c-0.564,5.635-0.234,10.781-0.417,16.412
				c-0.105,3.282-1.507,3.793-1.919,0.762c-1.502-11.075,1.055-27.431,4.503-32.801
				C1071.863,563.057,1071.998,563.445,1071.932,563.819L1071.932,563.819z"/>
		</g>
	</g>
	<g>
		<g>
			<linearGradient id="SVGID_30_" gradientUnits="userSpaceOnUse" x1="974.8818" y1="542.8955" x2="974.8818" y2="601.3573">
				<stop  offset="0.0013" style="stop-color:#EAD475"/>
				<stop  offset="0.8368" style="stop-color:#F4C47F"/>
			</linearGradient>
			<path fill="url(#SVGID_30_)" d="M971.2,548.799c1.286,6.959,2.634,14.027,3.396,21.665c0.813,8.113,0.335,15.521,0.599,23.619
				c0.153,4.713,2.17,5.448,2.762,1.086c2.162-15.938-1.518-39.468-6.479-47.185C971.299,547.695,971.102,548.266,971.2,548.799
				L971.2,548.799z"/>
		</g>
		<g>
			<linearGradient id="SVGID_31_" gradientUnits="userSpaceOnUse" x1="979.9551" y1="542.8984" x2="979.9551" y2="601.3572">
				<stop  offset="0.0013" style="stop-color:#EAD475"/>
				<stop  offset="0.8368" style="stop-color:#F4C47F"/>
			</linearGradient>
			<path fill="url(#SVGID_31_)" d="M982.513,563.819c-0.894,4.838-1.83,9.754-2.359,15.06c-0.563,5.635-0.233,10.781-0.416,16.412
				c-0.106,3.282-1.508,3.793-1.919,0.762c-1.505-11.075,1.055-27.431,4.5-32.801C982.446,563.057,982.582,563.445,982.513,563.819
				L982.513,563.819z"/>
		</g>
	</g>
	<g>
		<g>
			<linearGradient id="SVGID_32_" gradientUnits="userSpaceOnUse" x1="1005.3398" y1="542.8994" x2="1005.3398" y2="601.355">
				<stop  offset="0.0013" style="stop-color:#EAD475"/>
				<stop  offset="0.8368" style="stop-color:#F4C47F"/>
			</linearGradient>
			<path fill="url(#SVGID_32_)" d="M1008.146,560.51c-0.98,5.304-2.005,10.695-2.589,16.518c-0.618,6.185-0.256,11.828-0.455,17.996
				c-0.116,3.6-1.653,4.154-2.104,0.835c-1.65-12.149,1.154-30.079,4.936-35.967C1008.071,559.675,1008.222,560.106,1008.146,560.51
				L1008.146,560.51z"/>
		</g>
		<g>
			<linearGradient id="SVGID_33_" gradientUnits="userSpaceOnUse" x1="1001.4727" y1="542.8984" x2="1001.4727" y2="601.3558">
				<stop  offset="0.0013" style="stop-color:#EAD475"/>
				<stop  offset="0.8368" style="stop-color:#F4C47F"/>
			</linearGradient>
			<path fill="url(#SVGID_33_)" d="M999.522,571.961c0.683,3.687,1.394,7.436,1.801,11.481c0.429,4.297,0.177,8.22,0.314,12.512
				c0.082,2.497,1.15,2.885,1.464,0.575c1.147-8.444-0.804-20.912-3.432-24.999C999.574,571.377,999.471,571.682,999.522,571.961
				L999.522,571.961z"/>
		</g>
	</g>
	<g>
		<g>
			<path fill="#F7E8A1" d="M796.964,682.706c1.286,6.966,2.633,14.036,3.396,21.665c0.813,8.111,0.338,15.521,0.599,23.619
				c0.152,4.72,2.17,5.448,2.761,1.093c2.163-15.938-1.517-39.468-6.475-47.191C797.063,681.61,796.865,682.173,796.964,682.706
				L796.964,682.706z"/>
		</g>
		<g>
			<path fill="#F7E8A1" d="M808.279,697.727c-0.895,4.839-1.83,9.755-2.362,15.06c-0.564,5.645-0.234,10.789-0.416,16.419
				c-0.106,3.276-1.508,3.787-1.919,0.756c-1.503-11.078,1.054-27.432,4.502-32.802C808.21,696.965,808.346,697.359,808.279,697.727
				L808.279,697.727z"/>
		</g>
	</g>
	<g>
		<g>
			<path fill="#F7E8A1" d="M828.217,682.706c1.285,6.966,2.633,14.036,3.396,21.665c0.813,8.111,0.338,15.521,0.599,23.619
				c0.152,4.72,2.17,5.448,2.761,1.093c2.162-15.938-1.518-39.468-6.478-47.191C828.315,681.61,828.118,682.173,828.217,682.706
				L828.217,682.706z"/>
		</g>
		<g>
			<path fill="#F7E8A1" d="M839.531,697.727c-0.896,4.839-1.829,9.755-2.361,15.06c-0.564,5.645-0.234,10.789-0.416,16.419
				c-0.106,3.276-1.508,3.787-1.919,0.756c-1.503-11.078,1.054-27.432,4.502-32.802
				C839.463,696.965,839.599,697.359,839.531,697.727L839.531,697.727z"/>
		</g>
	</g>
	<g>
		<g>
			<path fill="#F7E8A1" d="M848.187,694.424c-0.98,5.305-2.007,10.695-2.589,16.513c-0.62,6.184-0.256,11.827-0.455,18.004
				c-0.118,3.591-1.655,4.15-2.106,0.825c-1.647-12.142,1.158-30.081,4.937-35.967C848.11,693.58,848.261,694.014,848.187,694.424
				L848.187,694.424z"/>
		</g>
		<g>
			<path fill="#F7E8A1" d="M839.563,705.869c0.68,3.692,1.395,7.436,1.798,11.481c0.432,4.297,0.18,8.219,0.318,12.511
				c0.081,2.504,1.15,2.892,1.463,0.583c1.146-8.444-0.803-20.912-3.431-25.007C839.615,705.285,839.51,705.59,839.563,705.869
				L839.563,705.869z"/>
		</g>
	</g>
	<g>
		<g>
			<g>
				<linearGradient id="SVGID_34_" gradientUnits="userSpaceOnUse" x1="984.9307" y1="384.0767" x2="984.9307" y2="530.1629">
					<stop  offset="0" style="stop-color:#C1B6A3"/>
					<stop  offset="1" style="stop-color:#AEA28B"/>
				</linearGradient>
				<path fill="url(#SVGID_34_)" d="M1080.885,512.185c0,10.891-8.782,19.321-19.675,19.321h-3.51v26.697
					c0,10.888-8.433,19.32-19.322,19.32s-19.32-8.433-19.32-19.32v-26.697h-109.95h-0.353h-0.351c-4.216,0-8.432-1.055-11.944-4.217
					c-8.781-6.673-9.834-18.617-3.161-27.05l129.974-161.588c0.353,0,0.353-0.352,0.704-0.703c0.352-0.351,0.701-0.703,1.055-1.405
					c1.052-0.352,1.405-0.701,1.755-1.054c0.353-0.351,1.053-0.703,1.406-1.053c0.701-0.353,1.053-0.702,2.107-0.702
					c0.351-0.703,0.702-1.056,1.405-1.056c0.35-0.35,1.052-0.35,2.107-0.702c0.35,0,1.054,0,1.405-0.351c0.703,0,1.755,0,2.459,0
					c0,0,0.352,0,0.701,0c0.354,0,0.354,0,0.704,0c0.702,0,1.755,0,2.107,0c0.702,0.351,1.053,0.351,1.755,0.351
					c0.353,0.353,1.406,0.353,2.107,0.702c0.354,0,1.057,0.353,1.406,0.353c0.703,0.703,1.404,1.053,1.758,1.405
					c0.701,0.35,1.052,0.702,1.755,1.053c0,0,0.35,0,0.35,0.353c0.354,0,1.056,0.35,1.056,0.701
					c0.703,0.702,1.054,1.055,1.405,1.405c0.35,0.352,0.702,1.055,1.054,1.405c0.352,0.352,0.701,0.702,1.405,1.757
					c0,0.35,0.352,1.053,0.702,1.405c0.353,0.703,0.353,1.053,0.702,2.108c0,0.349,0.354,1.052,0.354,1.405
					c0.35,0.702,0.35,1.052,0.35,2.105c0,0.702,0.353,1.055,0.353,1.758c0,0.349,0,0.702,0,1.052v141.919h3.51
					C1072.103,492.863,1080.885,501.645,1080.885,512.185z M1019.058,406.097l-69.904,86.767h69.904V406.097z"/>
			</g>
			<g>
				<linearGradient id="SVGID_35_" gradientUnits="userSpaceOnUse" x1="984.9307" y1="384.0767" x2="984.9307" y2="530.1629">
					<stop  offset="0.0069" style="stop-color:#C1B6A3;stop-opacity:0"/>
					<stop  offset="0.2961" style="stop-color:#B1A691;stop-opacity:0.2912"/>
					<stop  offset="0.7229" style="stop-color:#9E937B;stop-opacity:0.721"/>
					<stop  offset="1" style="stop-color:#978C73"/>
				</linearGradient>
				<path fill="url(#SVGID_35_)" d="M1080.885,512.185c0,10.891-8.782,19.321-19.675,19.321h-3.51v26.697
					c0,10.888-8.433,19.32-19.322,19.32s-19.32-8.433-19.32-19.32v-26.697h-109.95h-0.353h-0.351c-4.216,0-8.432-1.055-11.944-4.217
					c-8.781-6.673-9.834-18.617-3.161-27.05l129.974-161.588c0.353,0,0.353-0.352,0.704-0.703c0.352-0.351,0.701-0.703,1.055-1.405
					c1.052-0.352,1.405-0.701,1.755-1.054c0.353-0.351,1.053-0.703,1.406-1.053c0.701-0.353,1.053-0.702,2.107-0.702
					c0.351-0.703,0.702-1.056,1.405-1.056c0.35-0.35,1.052-0.35,2.107-0.702c0.35,0,1.054,0,1.405-0.351c0.703,0,1.755,0,2.459,0
					c0,0,0.352,0,0.701,0c0.354,0,0.354,0,0.704,0c0.702,0,1.755,0,2.107,0c0.702,0.351,1.053,0.351,1.755,0.351
					c0.353,0.353,1.406,0.353,2.107,0.702c0.354,0,1.057,0.353,1.406,0.353c0.703,0.703,1.404,1.053,1.758,1.405
					c0.701,0.35,1.052,0.702,1.755,1.053c0,0,0.35,0,0.35,0.353c0.354,0,1.056,0.35,1.056,0.701
					c0.703,0.702,1.054,1.055,1.405,1.405c0.35,0.352,0.702,1.055,1.054,1.405c0.352,0.352,0.701,0.702,1.405,1.757
					c0,0.35,0.352,1.053,0.702,1.405c0.353,0.703,0.353,1.053,0.702,2.108c0,0.349,0.354,1.052,0.354,1.405
					c0.35,0.702,0.35,1.052,0.35,2.105c0,0.702,0.353,1.055,0.353,1.758c0,0.349,0,0.702,0,1.052v141.919h3.51
					C1072.103,492.863,1080.885,501.645,1080.885,512.185z M1019.058,406.097l-69.904,86.767h69.904V406.097z"/>
			</g>
			
				<linearGradient id="SVGID_36_" gradientUnits="userSpaceOnUse" x1="620.9634" y1="192.5054" x2="608.6538" y2="172.1066" gradientTransform="matrix(0.8309 0.5565 -0.5565 0.8309 510.0809 5.6493)">
				<stop  offset="0" style="stop-color:#C1B6A3"/>
				<stop  offset="0.8176" style="stop-color:#9F9F96"/>
			</linearGradient>
			<path fill="url(#SVGID_36_)" d="M928.109,504.725c4.199-6.269,3.742-13.938-1.02-17.128c-4.763-3.188-12.026-0.69-16.227,5.579
				c-4.197,6.27-3.742,13.938,1.02,17.127C916.644,513.493,923.909,510.994,928.109,504.725z"/>
			
				<linearGradient id="SVGID_37_" gradientUnits="userSpaceOnUse" x1="469.4521" y1="244.1553" x2="463.981" y2="235.0887" gradientTransform="matrix(0.4413 0.8974 -0.8974 0.4413 912.0505 -13.554)">
				<stop  offset="0" style="stop-color:#C1B6A3"/>
				<stop  offset="0.8176" style="stop-color:#9F9F96"/>
			</linearGradient>
			<path fill="url(#SVGID_37_)" d="M906.396,517.705c2.413-1.189,2.875-5.196,1.028-8.951c-1.849-3.755-5.301-5.839-7.717-4.649
				c-2.414,1.188-2.873,5.191-1.027,8.949C900.527,516.809,903.981,518.894,906.396,517.705z"/>
			
				<linearGradient id="SVGID_38_" gradientUnits="userSpaceOnUse" x1="438.7261" y1="268.3027" x2="434.2313" y2="260.8542" gradientTransform="matrix(0.2455 0.9694 -0.9694 0.2455 1072.0697 32.8945)">
				<stop  offset="0" style="stop-color:#C1B6A3"/>
				<stop  offset="0.8176" style="stop-color:#9F9F96"/>
			</linearGradient>
			<path fill="url(#SVGID_38_)" d="M923.714,524.4c2.696-0.684,4.482-2.808,3.99-4.748c-0.49-1.938-3.075-2.957-5.769-2.277
				c-2.695,0.684-4.48,2.81-3.992,4.749C918.437,524.063,921.019,525.084,923.714,524.4z"/>
			<g opacity="0.8">
				
					<linearGradient id="SVGID_39_" gradientUnits="userSpaceOnUse" x1="1280.9775" y1="468.877" x2="1253.0068" y2="529.7544" gradientTransform="matrix(0.9561 0.2931 -0.2931 0.9561 -74.1756 -450.8132)">
					<stop  offset="0" style="stop-color:#FFFFFF"/>
					<stop  offset="0.8964" style="stop-color:#FFFFFF;stop-opacity:0.1036"/>
					<stop  offset="1" style="stop-color:#FFFFFF;stop-opacity:0"/>
				</linearGradient>
				<path fill="url(#SVGID_39_)" d="M953.209,433.719l47.12-55.979c1.271-1.509,3.523-1.702,5.032-0.433l2.686,2.262
					c1.509,1.27,1.7,3.521,0.431,5.03l-47.121,55.979c-1.27,1.506-3.521,1.701-5.027,0.431l-2.69-2.261
					C952.133,437.479,951.938,435.228,953.209,433.719z"/>
				
					<linearGradient id="SVGID_40_" gradientUnits="userSpaceOnUse" x1="1279.6338" y1="468.3389" x2="1251.516" y2="529.5364" gradientTransform="matrix(0.9561 0.2931 -0.2931 0.9561 -74.1756 -450.8132)">
					<stop  offset="0" style="stop-color:#FFFFFF"/>
					<stop  offset="0.8964" style="stop-color:#FFFFFF;stop-opacity:0.1036"/>
					<stop  offset="1" style="stop-color:#FFFFFF;stop-opacity:0"/>
				</linearGradient>
				<path fill="url(#SVGID_40_)" d="M1007.169,369.614l4.771-5.663c1.267-1.507,3.518-1.699,5.028-0.431l2.687,2.262
					c1.507,1.27,1.701,3.52,0.432,5.029l-4.768,5.664c-1.271,1.506-3.521,1.699-5.029,0.429l-2.687-2.261
					C1006.095,373.374,1005.899,371.122,1007.169,369.614z"/>
			</g>
		</g>
		<g>
			<g>
				<linearGradient id="SVGID_41_" gradientUnits="userSpaceOnUse" x1="275.1221" y1="379.021" x2="275.1221" y2="527.3318">
					<stop  offset="0" style="stop-color:#C1B6A3"/>
					<stop  offset="1" style="stop-color:#AEA28B"/>
				</linearGradient>
				<path fill="url(#SVGID_41_)" d="M371.921,513.406c0,10.985-8.861,19.49-19.846,19.49h-3.545v26.932
					c0,10.984-8.504,19.491-19.492,19.491c-10.982,0-19.488-8.507-19.488-19.491v-26.932H198.632h-0.355h-0.354
					c-4.252,0-8.504-1.063-12.049-4.253c-8.859-6.731-9.922-18.781-3.191-27.288l131.119-163.012c0.354,0,0.354-0.353,0.707-0.708
					c0.355-0.354,0.711-0.71,1.064-1.418c1.064-0.354,1.418-0.707,1.771-1.063c0.355-0.354,1.064-0.709,1.418-1.063
					c0.711-0.354,1.063-0.709,2.129-0.709c0.354-0.708,0.705-1.063,1.416-1.063c0.354-0.354,1.064-0.354,2.125-0.71
					c0.354,0,1.064,0,1.418-0.353c0.709,0,1.771,0,2.482,0c0,0,0.354,0,0.705,0c0.355,0,0.355,0,0.711,0c0.707,0,1.773,0,2.125,0
					c0.711,0.353,1.064,0.353,1.773,0.353c0.355,0.355,1.416,0.355,2.125,0.71c0.355,0,1.063,0.355,1.418,0.355
					c0.707,0.708,1.418,1.063,1.771,1.417c0.709,0.354,1.064,0.709,1.773,1.063c0,0,0.354,0,0.354,0.355
					c0.355,0,1.063,0.353,1.063,0.707c0.711,0.708,1.063,1.063,1.418,1.418c0.355,0.355,0.711,1.063,1.064,1.416
					c0.352,0.356,0.711,0.71,1.416,1.774c0,0.353,0.354,1.062,0.707,1.417c0.355,0.709,0.355,1.062,0.711,2.127
					c0,0.353,0.354,1.063,0.354,1.418c0.355,0.708,0.355,1.062,0.355,2.124c0,0.708,0.354,1.063,0.354,1.773
					c0,0.353,0,0.708,0,1.061v143.169h3.545C363.06,493.915,371.921,502.773,371.921,513.406z M309.55,406.383l-70.52,87.532h70.52
					V406.383z"/>
			</g>
			<g>
				<linearGradient id="SVGID_42_" gradientUnits="userSpaceOnUse" x1="275.1221" y1="379.021" x2="275.1221" y2="527.3318">
					<stop  offset="0.0069" style="stop-color:#C1B6A3;stop-opacity:0"/>
					<stop  offset="0.2961" style="stop-color:#B1A691;stop-opacity:0.2912"/>
					<stop  offset="0.7229" style="stop-color:#9E937B;stop-opacity:0.721"/>
					<stop  offset="1" style="stop-color:#978C73"/>
				</linearGradient>
				<path fill="url(#SVGID_42_)" d="M371.921,513.406c0,10.985-8.861,19.49-19.846,19.49h-3.545v26.932
					c0,10.984-8.504,19.491-19.492,19.491c-10.982,0-19.488-8.507-19.488-19.491v-26.932H198.632h-0.355h-0.354
					c-4.252,0-8.504-1.063-12.049-4.253c-8.859-6.731-9.922-18.781-3.191-27.288l131.119-163.012c0.354,0,0.354-0.353,0.707-0.708
					c0.355-0.354,0.711-0.71,1.064-1.418c1.064-0.354,1.418-0.707,1.771-1.063c0.355-0.354,1.064-0.709,1.418-1.063
					c0.711-0.354,1.063-0.709,2.129-0.709c0.354-0.708,0.705-1.063,1.416-1.063c0.354-0.354,1.064-0.354,2.125-0.71
					c0.354,0,1.064,0,1.418-0.353c0.709,0,1.771,0,2.482,0c0,0,0.354,0,0.705,0c0.355,0,0.355,0,0.711,0c0.707,0,1.773,0,2.125,0
					c0.711,0.353,1.064,0.353,1.773,0.353c0.355,0.355,1.416,0.355,2.125,0.71c0.355,0,1.063,0.355,1.418,0.355
					c0.707,0.708,1.418,1.063,1.771,1.417c0.709,0.354,1.064,0.709,1.773,1.063c0,0,0.354,0,0.354,0.355
					c0.355,0,1.063,0.353,1.063,0.707c0.711,0.708,1.063,1.063,1.418,1.418c0.355,0.355,0.711,1.063,1.064,1.416
					c0.352,0.356,0.711,0.71,1.416,1.774c0,0.353,0.354,1.062,0.707,1.417c0.355,0.709,0.355,1.062,0.711,2.127
					c0,0.353,0.354,1.063,0.354,1.418c0.355,0.708,0.355,1.062,0.355,2.124c0,0.708,0.354,1.063,0.354,1.773
					c0,0.353,0,0.708,0,1.061v143.169h3.545C363.06,493.915,371.921,502.773,371.921,513.406z M309.55,406.383l-70.52,87.532h70.52
					V406.383z"/>
			</g>
			
				<linearGradient id="SVGID_43_" gradientUnits="userSpaceOnUse" x1="581.7212" y1="648.1123" x2="569.3042" y2="627.5356" gradientTransform="matrix(-0.224 0.9746 -0.9746 -0.224 1101.9969 99.8464)">
				<stop  offset="0" style="stop-color:#C1B6A3"/>
				<stop  offset="0.8176" style="stop-color:#9F9F96"/>
			</linearGradient>
			<path fill="url(#SVGID_43_)" d="M349.417,527.971c7.42,1.707,14.486-1.48,15.777-7.114c1.297-5.635-3.666-11.587-11.086-13.291
				c-7.418-1.706-14.484,1.48-15.777,7.115C337.034,520.314,341.999,526.266,349.417,527.971z"/>
			
				<linearGradient id="SVGID_44_" gradientUnits="userSpaceOnUse" x1="663.0723" y1="658.7041" x2="657.5535" y2="649.5587" gradientTransform="matrix(-0.6813 0.732 -0.732 -0.6813 1263.1458 468.854)">
				<stop  offset="0" style="stop-color:#C1B6A3"/>
				<stop  offset="0.8176" style="stop-color:#9F9F96"/>
			</linearGradient>
			<path fill="url(#SVGID_44_)" d="M329.384,512.169c1.984,1.85,5.926,0.844,8.805-2.249c2.875-3.09,3.596-7.096,1.609-8.944
				s-5.93-0.842-8.805,2.25C328.118,506.316,327.392,510.32,329.384,512.169z"/>
			
				<linearGradient id="SVGID_45_" gradientUnits="userSpaceOnUse" x1="714.0049" y1="632.6406" x2="709.4718" y2="625.1287" gradientTransform="matrix(-0.8184 0.5747 -0.5747 -0.8184 1276.0808 634.3948)">
				<stop  offset="0" style="stop-color:#C1B6A3"/>
				<stop  offset="0.8176" style="stop-color:#9F9F96"/>
			</linearGradient>
			<path fill="url(#SVGID_45_)" d="M329.292,530.898c1.613,2.297,4.256,3.216,5.908,2.057c1.65-1.161,1.686-3.963,0.074-6.256
				c-1.611-2.294-4.26-3.216-5.908-2.055C327.712,525.802,327.679,528.604,329.292,530.898z"/>
			<g opacity="0.8">
				
					<linearGradient id="SVGID_46_" gradientUnits="userSpaceOnUse" x1="603.8862" y1="676.4414" x2="575.6694" y2="737.8545" gradientTransform="matrix(0.9561 0.2931 -0.2931 0.9561 -74.1756 -450.8132)">
					<stop  offset="0" style="stop-color:#FFFFFF"/>
					<stop  offset="0.8964" style="stop-color:#FFFFFF;stop-opacity:0.1036"/>
					<stop  offset="1" style="stop-color:#FFFFFF;stop-opacity:0"/>
				</linearGradient>
				<path fill="url(#SVGID_46_)" d="M244.478,434.249l47.535-56.472c1.281-1.521,3.553-1.717,5.072-0.436l2.711,2.28
					c1.52,1.281,1.719,3.555,0.436,5.075l-47.535,56.472c-1.283,1.521-3.555,1.718-5.076,0.437l-2.709-2.281
					C243.39,438.044,243.194,435.771,244.478,434.249z"/>
				
					<linearGradient id="SVGID_47_" gradientUnits="userSpaceOnUse" x1="602.5278" y1="675.8975" x2="574.1642" y2="737.6299" gradientTransform="matrix(0.9561 0.2931 -0.2931 0.9561 -74.1756 -450.8132)">
					<stop  offset="0" style="stop-color:#FFFFFF"/>
					<stop  offset="0.8964" style="stop-color:#FFFFFF;stop-opacity:0.1036"/>
					<stop  offset="1" style="stop-color:#FFFFFF;stop-opacity:0"/>
				</linearGradient>
				<path fill="url(#SVGID_47_)" d="M298.911,369.581l4.809-5.714c1.281-1.521,3.555-1.714,5.074-0.436l2.711,2.283
					c1.521,1.278,1.715,3.55,0.438,5.073l-4.809,5.714c-1.281,1.521-3.555,1.715-5.076,0.434l-2.709-2.281
					C297.825,373.374,297.632,371.102,298.911,369.581z"/>
			</g>
		</g>
		<g>
			<linearGradient id="SVGID_48_" gradientUnits="userSpaceOnUse" x1="467.6943" y1="418.3701" x2="552.1719" y2="403.991">
				<stop  offset="0" style="stop-color:#C1B6A3"/>
				<stop  offset="1" style="stop-color:#AEA28B"/>
			</linearGradient>
			<path fill="url(#SVGID_48_)" d="M632.499,383.018c-9.521-32.244-43.379-50.666-75.625-41.143
				c-13.851,4.091-25.143,12.682-32.771,23.697c-0.152,0.124-0.32,0.222-0.459,0.359c-2.623,2.688-11.429,10.702-30.25,19.268
				c-47.508,21.62-58.117,35.92-43.806,65.709c8.509,17.706,17.782-11.198,44.828-13.459c3.667-0.307,6.731,2.893,5.46,6.344
				c-1.857,5.038-10.009,12.398-37.184,20.137c-3.213,0.913-4.596,4.685-2.723,7.448c3.598,5.305,27.416,6.438,38.206,1.198
				c16.937-8.23,55.01-7.463,83.857-11.957c3.106-0.411,6.222-1.063,9.326-1.979C623.601,449.119,642.022,415.261,632.499,383.018z"
				/>
			<linearGradient id="SVGID_49_" gradientUnits="userSpaceOnUse" x1="512.6445" y1="386.8516" x2="550.1126" y2="430.4082">
				<stop  offset="0.0069" style="stop-color:#C1B6A3;stop-opacity:0"/>
				<stop  offset="0.2961" style="stop-color:#B1A691;stop-opacity:0.2912"/>
				<stop  offset="0.7229" style="stop-color:#9E937B;stop-opacity:0.721"/>
				<stop  offset="1" style="stop-color:#978C73"/>
			</linearGradient>
			<path fill="url(#SVGID_49_)" d="M631.539,384.717c-9.521-32.244-43.379-50.666-75.625-41.143
				c-13.851,4.091-25.143,12.682-32.771,23.697c-0.151,0.124-0.321,0.222-0.458,0.359c-2.625,2.688-11.43,10.702-30.25,19.268
				c-47.51,21.62-58.119,35.92-43.807,65.709c8.508,17.706,17.781-11.198,44.828-13.459c3.667-0.307,6.73,2.893,5.459,6.344
				c-1.855,5.038-10.008,12.398-37.183,20.137c-3.213,0.913-4.597,4.685-2.724,7.448c3.599,5.305,27.417,6.438,38.207,1.198
				c16.936-8.23,55.01-7.463,83.857-11.957c3.106-0.411,6.223-1.063,9.326-1.979C622.641,450.818,641.063,416.96,631.539,384.717z"
				/>
			<linearGradient id="SVGID_50_" gradientUnits="userSpaceOnUse" x1="557.9888" y1="314.5586" x2="568.5233" y2="361.6129">
				<stop  offset="0" style="stop-color:#C1B6A3"/>
				<stop  offset="1" style="stop-color:#AEA28B"/>
			</linearGradient>
			<path fill="url(#SVGID_50_)" d="M582.319,315.489c-3.811-12.902-17.029-20.37-29.523-16.679
				c-12.496,3.69-19.536,17.141-15.729,30.043c0.922,3.118,2.398,5.918,4.277,8.32h-0.009c2.112,3.453,6.769,5.83,8.998,9.295
				c2.177,3.383,3.432,7.544,3.483,7.725c0.003,0.002,0.003,0.005,0.006,0.01c2.373,8.04,10.611,12.693,18.399,10.393
				c7.786-2.298,12.176-10.683,9.802-18.723c0,0-1.265-4.273-1.274-8.388c-0.009-4.118,2.609-8.644,2.505-12.691l-0.004,0.005
				C583.521,321.762,583.241,318.61,582.319,315.489z"/>
			<linearGradient id="SVGID_51_" gradientUnits="userSpaceOnUse" x1="558.2603" y1="320.9307" x2="565.924" y2="355.162">
				<stop  offset="0.0069" style="stop-color:#C1B6A3;stop-opacity:0"/>
				<stop  offset="1" style="stop-color:#978C73"/>
			</linearGradient>
			<path fill="url(#SVGID_51_)" d="M575.959,321.607c-2.771-9.386-12.388-14.816-21.476-12.133
				c-9.093,2.683-14.215,12.468-11.441,21.853c0.67,2.272,1.742,4.307,3.109,6.057l-0.006-0.003
				c1.536,2.515,4.925,4.242,6.546,6.764c1.583,2.46,2.495,5.488,2.536,5.619c0,0.002,0.002,0.004,0.002,0.007
				c1.726,5.849,7.72,9.235,13.385,7.563c5.666-1.674,8.858-7.771,7.131-13.623c0,0-0.918-3.108-0.928-6.101
				c-0.004-2.997,1.899-6.289,1.826-9.233l-0.005,0.005C576.833,326.17,576.629,323.877,575.959,321.607z"/>
			<linearGradient id="SVGID_52_" gradientUnits="userSpaceOnUse" x1="508.5977" y1="393.2813" x2="517.8836" y2="409.0075">
				<stop  offset="0.0069" style="stop-color:#C1B6A3;stop-opacity:0"/>
				<stop  offset="0.2961" style="stop-color:#B1A691;stop-opacity:0.2912"/>
				<stop  offset="0.7229" style="stop-color:#9E937B;stop-opacity:0.721"/>
				<stop  offset="1" style="stop-color:#978C73"/>
			</linearGradient>
			<circle fill="url(#SVGID_52_)" cx="511.923" cy="398.914" r="13.872"/>
			<path fill="#FFFFFF" d="M521.591,392.683c-2.629-5.943-9.583-8.632-15.529-6.001c-5.943,2.631-8.629,9.585-5.998,15.529
				c2.631,5.946,9.582,8.632,15.528,6.001C521.536,405.581,524.224,398.629,521.591,392.683z"/>
			<circle fill="#AEA28B" cx="511.924" cy="400.044" r="6.317"/>
			<path fill="#4F4F4C" d="M515.136,399.896c-1.02-2.304-3.715-3.347-6.02-2.325c-2.306,1.02-3.347,3.715-2.327,6.021
				c1.022,2.306,3.717,3.347,6.022,2.327C515.114,404.896,516.157,402.201,515.136,399.896z"/>
			<path fill="#FFFFFF" d="M511.45,400.787l-0.127,6.705l6.512-2.883l-5.045-4.416C512.251,399.723,511.462,400.069,511.45,400.787z
				"/>
			<linearGradient id="SVGID_53_" gradientUnits="userSpaceOnUse" x1="450.5586" y1="356.5088" x2="474.4451" y2="397.053">
				<stop  offset="0" style="stop-color:#C1B6A3"/>
				<stop  offset="1" style="stop-color:#AEA28B"/>
			</linearGradient>
			<path fill="url(#SVGID_53_)" d="M454.528,408.854l-10.777-59.9c-0.682-3.789,3.836-6.274,6.672-3.672
				c0,0,9.832,20.049,14.499,25.052c11.198,12.014,30.126,15.936,30.126,15.936c2.019,1.852,1.633,5.131-0.756,6.467l-33.848,18.913
				C458.034,412.994,455.017,411.567,454.528,408.854z"/>
			
				<linearGradient id="SVGID_54_" gradientUnits="userSpaceOnUse" x1="419.0903" y1="368.2173" x2="439.7272" y2="403.2455" gradientTransform="matrix(0.7176 0.0756 0.0756 0.9542 122.1332 -20.9109)">
				<stop  offset="0" style="stop-color:#D6C9BB"/>
				<stop  offset="0.2735" style="stop-color:#D2C5B6;stop-opacity:0.7253"/>
				<stop  offset="0.5852" style="stop-color:#C7BAA9;stop-opacity:0.4123"/>
				<stop  offset="0.9144" style="stop-color:#B4A892;stop-opacity:0.0816"/>
				<stop  offset="0.9957" style="stop-color:#AEA28B;stop-opacity:0"/>
			</linearGradient>
			<path fill="url(#SVGID_54_)" d="M456.589,405.536l-10.594-50.086c-0.671-3.165,1.97-4.919,3.896-2.59
				c0,0,7.406,17.171,10.624,21.599c7.729,10.636,19.722,15.105,19.722,15.105c1.369,1.657,1.346,4.338-0.048,5.281l-19.749,13.383
				C459.032,409.18,457.069,407.808,456.589,405.536z"/>
			<linearGradient id="SVGID_55_" gradientUnits="userSpaceOnUse" x1="674.7813" y1="326.7471" x2="674.7813" y2="563.3925">
				<stop  offset="0" style="stop-color:#C1B6A3"/>
				<stop  offset="1" style="stop-color:#AEA28B"/>
			</linearGradient>
			<path fill="url(#SVGID_55_)" d="M674.779,297.867c-73.048,0-132.267,70.722-132.267,143.77v138.021h65.174v-24.042
				c19.674,11.604,42.6,18.29,67.093,18.29c24.496,0,47.419-6.686,67.093-18.29v24.042h65.177V441.637
				C807.049,368.589,747.83,297.867,674.779,297.867z"/>
			<linearGradient id="SVGID_56_" gradientUnits="userSpaceOnUse" x1="673.8203" y1="450.7715" x2="673.8203" y2="589.6051">
				<stop  offset="0.0069" style="stop-color:#C1B6A3;stop-opacity:0"/>
				<stop  offset="1" style="stop-color:#978C73"/>
			</linearGradient>
			<path fill="url(#SVGID_56_)" d="M673.819,299.566c-73.049,0-132.268,70.722-132.268,143.77v138.021h65.175v-24.042
				c19.674,11.605,42.599,18.291,67.093,18.291c24.496,0,47.419-6.686,67.093-18.291v24.042h65.177V443.336
				C806.089,370.288,746.87,299.566,673.819,299.566z"/>
			<path fill="#D6C9BB" d="M561.718,581.357c0-6.099-4.943-11.042-11.042-11.042s-11.042,4.943-11.042,11.042H561.718z"/>
			<path fill="#D6C9BB" d="M608.645,581.357c0-6.099-4.943-11.042-11.042-11.042c-6.098,0-11.041,4.943-11.041,11.042H608.645z"/>
			<path fill="#D6C9BB" d="M587.942,581.357c0-8.385-6.798-15.182-15.183-15.182s-15.183,6.797-15.183,15.182H587.942z"/>
			<path fill="#D6C9BB" d="M761.08,581.357c0-6.099-4.943-11.042-11.042-11.042s-11.042,4.943-11.042,11.042H761.08z"/>
			<path fill="#D6C9BB" d="M808.005,581.357c0-6.099-4.943-11.042-11.04-11.042c-6.099,0-11.042,4.943-11.042,11.042H808.005z"/>
			<path fill="#D6C9BB" d="M787.304,581.357c0-8.385-6.797-15.182-15.185-15.182c-8.385,0-15.182,6.797-15.182,15.182H787.304z"/>
			<linearGradient id="SVGID_57_" gradientUnits="userSpaceOnUse" x1="673.8213" y1="284.3389" x2="673.8213" y2="455.989">
				<stop  offset="0" style="stop-color:#D6C9BB"/>
				<stop  offset="0.2735" style="stop-color:#D2C5B6;stop-opacity:0.7253"/>
				<stop  offset="0.5852" style="stop-color:#C7BAA9;stop-opacity:0.4123"/>
				<stop  offset="0.9144" style="stop-color:#B4A892;stop-opacity:0.0816"/>
				<stop  offset="0.9957" style="stop-color:#AEA28B;stop-opacity:0"/>
			</linearGradient>
			<path fill="url(#SVGID_57_)" d="M777.475,398.052c0,44.957-46.409,81.404-103.655,81.404
				c-57.244,0-103.652-36.447-103.652-81.404c0-44.959,46.408-86.657,103.652-86.657
				C731.065,311.395,777.475,353.093,777.475,398.052z"/>
			<linearGradient id="SVGID_58_" gradientUnits="userSpaceOnUse" x1="674.7813" y1="370.0073" x2="674.7813" y2="440.5328">
				<stop  offset="0.0069" style="stop-color:#C1B6A3;stop-opacity:0"/>
				<stop  offset="1" style="stop-color:#978C73"/>
			</linearGradient>
			<path fill="url(#SVGID_58_)" d="M658.424,372.836c0,40.643,7.322,132.797,16.355,132.797c9.034,0,16.358-92.154,16.358-132.797
				c0,0-6.74-3.827-16.358-3.827C664.974,369.009,658.424,372.836,658.424,372.836z"/>
			<path fill="#D6CBC4" d="M664.234,374.328c0,38.426,4.292,125.558,9.585,125.558c5.295,0,9.585-87.132,9.585-125.558
				c0,0-3.95-3.619-9.585-3.619C668.075,370.709,664.234,374.328,664.234,374.328z"/>
			<linearGradient id="SVGID_59_" gradientUnits="userSpaceOnUse" x1="454.4165" y1="438.5762" x2="467.7954" y2="438.5762">
				<stop  offset="0" style="stop-color:#C1B6A3"/>
				<stop  offset="0.8176" style="stop-color:#9F9F96"/>
			</linearGradient>
			<path fill="url(#SVGID_59_)" d="M467.693,437.537c-0.638-1.623-5.628-5.492-9.241-4.078c-3.611,1.417-4.479,7.577-3.845,9.202
				c0.637,1.623,4.081,1.792,7.696,0.378C465.915,441.625,468.33,439.16,467.693,437.537z"/>
			<linearGradient id="SVGID_60_" gradientUnits="userSpaceOnUse" x1="617.3511" y1="500.3545" x2="602.7922" y2="476.2284">
				<stop  offset="0" style="stop-color:#C1B6A3"/>
				<stop  offset="0.8176" style="stop-color:#9F9F96"/>
			</linearGradient>
			<ellipse fill="url(#SVGID_60_)" cx="609.877" cy="487.97" rx="12.274" ry="16.161"/>
			
				<linearGradient id="SVGID_61_" gradientUnits="userSpaceOnUse" x1="619.2632" y1="516.4697" x2="612.7913" y2="505.7449" gradientTransform="matrix(0.866 0.5 -0.5 0.866 323.6728 -239.934)">
				<stop  offset="0" style="stop-color:#C1B6A3"/>
				<stop  offset="0.8176" style="stop-color:#9F9F96"/>
			</linearGradient>
			<path fill="url(#SVGID_61_)" d="M609.357,515.014c1.591-2.755-0.594-6.997-4.882-9.471c-4.285-2.477-9.053-2.249-10.643,0.508
				c-1.59,2.755,0.595,6.997,4.88,9.472C603,517.999,607.768,517.771,609.357,515.014z"/>
			
				<linearGradient id="SVGID_62_" gradientUnits="userSpaceOnUse" x1="644.0605" y1="499.1221" x2="638.7453" y2="490.314" gradientTransform="matrix(0.7434 0.6689 -0.6689 0.7434 481.6695 -289.3404)">
				<stop  offset="0" style="stop-color:#C1B6A3"/>
				<stop  offset="0.8176" style="stop-color:#9F9F96"/>
			</linearGradient>
			<path fill="url(#SVGID_62_)" d="M630.783,510.198c2.198-2.445,2.555-5.709,0.796-7.291c-1.759-1.583-4.967-0.887-7.165,1.559
				c-2.201,2.443-2.558,5.709-0.799,7.292S628.582,512.642,630.783,510.198z"/>
			<linearGradient id="SVGID_63_" gradientUnits="userSpaceOnUse" x1="528.6675" y1="453.2236" x2="520.7094" y2="440.0359">
				<stop  offset="0" style="stop-color:#C1B6A3"/>
				<stop  offset="0.8176" style="stop-color:#9F9F96"/>
			</linearGradient>
			<ellipse fill="url(#SVGID_63_)" cx="524.583" cy="446.454" rx="6.709" ry="8.834"/>
			
				<linearGradient id="SVGID_64_" gradientUnits="userSpaceOnUse" x1="521.2651" y1="509.9326" x2="517.728" y2="504.0711" gradientTransform="matrix(0.866 0.5 -0.5 0.866 323.6728 -239.934)">
				<stop  offset="0" style="stop-color:#C1B6A3"/>
				<stop  offset="0.8176" style="stop-color:#9F9F96"/>
			</linearGradient>
			<path fill="url(#SVGID_64_)" d="M524.298,461.237c0.869-1.507-0.326-3.824-2.669-5.177c-2.344-1.354-4.948-1.229-5.818,0.278
				s0.325,3.824,2.669,5.177C520.823,462.867,523.428,462.744,524.298,461.237z"/>
			
				<linearGradient id="SVGID_65_" gradientUnits="userSpaceOnUse" x1="539.8086" y1="522.1094" x2="536.9028" y2="517.2941" gradientTransform="matrix(0.7434 0.6689 -0.6689 0.7434 481.6695 -289.3404)">
				<stop  offset="0" style="stop-color:#C1B6A3"/>
				<stop  offset="0.8176" style="stop-color:#9F9F96"/>
			</linearGradient>
			<path fill="url(#SVGID_65_)" d="M536.01,458.604c1.202-1.335,1.397-3.12,0.435-3.985c-0.96-0.865-2.714-0.482-3.916,0.854
				c-1.203,1.336-1.398,3.12-0.438,3.985C533.054,460.322,534.81,459.942,536.01,458.604z"/>
			
				<linearGradient id="SVGID_66_" gradientUnits="userSpaceOnUse" x1="613.6182" y1="515.5918" x2="599.0583" y2="491.4641" gradientTransform="matrix(-0.95 -0.3122 0.3122 -0.95 1157.5437 1046.882)">
				<stop  offset="0" style="stop-color:#C1B6A3"/>
				<stop  offset="0.8176" style="stop-color:#9F9F96"/>
			</linearGradient>
			<path fill="url(#SVGID_66_)" d="M727.146,375.766c-2.785,8.48,0.176,17.069,6.616,19.185c6.441,2.117,13.92-3.042,16.706-11.521
				c2.787-8.478-0.176-17.067-6.614-19.185C737.413,362.129,729.935,367.286,727.146,375.766z"/>
			
				<linearGradient id="SVGID_67_" gradientUnits="userSpaceOnUse" x1="622.5386" y1="531.334" x2="616.0681" y2="520.6115" gradientTransform="matrix(-0.6667 -0.7454 0.7454 -0.6667 774.5988 1172.8834)">
				<stop  offset="0" style="stop-color:#C1B6A3"/>
				<stop  offset="0.8176" style="stop-color:#9F9F96"/>
			</linearGradient>
			<path fill="url(#SVGID_67_)" d="M747.745,354.067c-2.372,2.122-1.619,6.833,1.68,10.521c3.302,3.69,7.897,4.96,10.27,2.84
				c2.372-2.122,1.621-6.833-1.68-10.521C754.716,353.217,750.116,351.945,747.745,354.067z"/>
			
				<linearGradient id="SVGID_68_" gradientUnits="userSpaceOnUse" x1="651.7256" y1="513.6465" x2="646.4099" y2="504.8376" gradientTransform="matrix(-0.4974 -0.8675 0.8675 -0.4974 609.1641 1171.9146)">
				<stop  offset="0" style="stop-color:#C1B6A3"/>
				<stop  offset="0.8176" style="stop-color:#9F9F96"/>
			</linearGradient>
			<path fill="url(#SVGID_68_)" d="M725.887,351.954c-2.852,1.636-4.211,4.625-3.032,6.679c1.176,2.054,4.441,2.391,7.294,0.756
				c2.854-1.635,4.211-4.625,3.034-6.679C732.004,350.657,728.739,350.319,725.887,351.954z"/>
			<linearGradient id="SVGID_69_" gradientUnits="userSpaceOnUse" x1="552.3276" y1="304.6284" x2="559.8035" y2="322.4346">
				<stop  offset="0" style="stop-color:#D6C9BB"/>
				<stop  offset="0.2735" style="stop-color:#D2C5B6;stop-opacity:0.7253"/>
				<stop  offset="0.5852" style="stop-color:#C7BAA9;stop-opacity:0.4123"/>
				<stop  offset="0.9144" style="stop-color:#B4A892;stop-opacity:0.0816"/>
				<stop  offset="0.9957" style="stop-color:#AEA28B;stop-opacity:0"/>
			</linearGradient>
			<path fill="url(#SVGID_69_)" d="M572.632,308.27c2.039,6.013-3.67,13.381-12.748,16.456c-9.08,3.077-18.09,0.696-20.126-5.316
				c-2.039-6.014,3.669-13.383,12.748-16.459C561.585,299.875,570.597,302.254,572.632,308.27z"/>
			<g>
				<g opacity="0.8">
					
						<linearGradient id="SVGID_70_" gradientUnits="userSpaceOnUse" x1="1102.5225" y1="465.0527" x2="1069.7832" y2="536.3087" gradientTransform="matrix(-0.3914 -0.9202 0.9202 -0.3914 630.8428 1527.3464)">
						<stop  offset="0" style="stop-color:#FFFFFF"/>
						<stop  offset="0.8964" style="stop-color:#FFFFFF;stop-opacity:0.1036"/>
						<stop  offset="1" style="stop-color:#FFFFFF;stop-opacity:0"/>
					</linearGradient>
					<path fill="url(#SVGID_70_)" d="M723.044,344.127c-26.532-12.415-51.023-14.862-79.471-7.868
						c-2.119,0.648-4.383-0.366-5.079-2.36c-0.497-1.423-0.745-2.134-1.241-3.557c-0.696-1.995,0.625-4.282,2.978-5.003
						c31.581-7.767,58.777-5.051,88.231,8.735c2.21,1.192,3.096,3.718,2.021,5.536c-0.767,1.297-1.151,1.945-1.918,3.242
						C727.489,344.671,725.034,345.2,723.044,344.127z"/>
					
						<linearGradient id="SVGID_71_" gradientUnits="userSpaceOnUse" x1="1095.9863" y1="464.0439" x2="1061.3491" y2="539.4308" gradientTransform="matrix(-0.3914 -0.9202 0.9202 -0.3914 630.8428 1527.3464)">
						<stop  offset="0" style="stop-color:#FFFFFF"/>
						<stop  offset="0.8964" style="stop-color:#FFFFFF;stop-opacity:0.1036"/>
						<stop  offset="1" style="stop-color:#FFFFFF;stop-opacity:0"/>
					</linearGradient>
					<path fill="url(#SVGID_71_)" d="M632.336,340.427c-3.079,1.35-4.599,2.09-7.586,3.701c-1.989,1.072-4.444,0.543-5.52-1.275
						c-0.768-1.297-1.151-1.945-1.919-3.242c-1.075-1.818-0.191-4.344,2.018-5.535c3.317-1.789,5.006-2.611,8.424-4.109
						c2.275-0.998,4.772-0.125,5.544,1.842c0.55,1.402,0.827,2.105,1.377,3.508C635.445,337.282,634.386,339.528,632.336,340.427z"
						/>
				</g>
			</g>
			<g>
				<g opacity="0.8">
					
						<linearGradient id="SVGID_72_" gradientUnits="userSpaceOnUse" x1="1075.9785" y1="410.2314" x2="1062.9662" y2="438.5524" gradientTransform="matrix(0.3914 -0.9202 -0.9202 -0.3914 499.8081 1527.3464)">
						<stop  offset="0" style="stop-color:#FFFFFF"/>
						<stop  offset="0.8964" style="stop-color:#FFFFFF;stop-opacity:0.1036"/>
						<stop  offset="1" style="stop-color:#FFFFFF;stop-opacity:0"/>
					</linearGradient>
					<path fill="url(#SVGID_72_)" d="M506.815,391.22c11.482-6.301,22.104-14.128,31.523-23.229
						c1.193-1.153,1.228-3.017,0.102-4.135l0,0c-1.125-1.117-2.945-1.102-4.092,0.007c-9.051,8.746-19.259,16.27-30.293,22.323
						c-1.4,0.769-1.957,2.506-1.224,3.91l0,0C503.566,391.501,505.357,392.02,506.815,391.22z"/>
					
						<linearGradient id="SVGID_73_" gradientUnits="userSpaceOnUse" x1="1090.8711" y1="418.8643" x2="1076.8113" y2="449.4651" gradientTransform="matrix(0.3914 -0.9202 -0.9202 -0.3914 499.8081 1527.3464)">
						<stop  offset="0" style="stop-color:#FFFFFF"/>
						<stop  offset="0.8964" style="stop-color:#FFFFFF;stop-opacity:0.1036"/>
						<stop  offset="1" style="stop-color:#FFFFFF;stop-opacity:0"/>
					</linearGradient>
					<path fill="url(#SVGID_73_)" d="M543.921,362.292c0.598-0.645,0.896-0.969,1.484-1.622c1.111-1.235,1.02-3.099-0.181-4.136l0,0
						c-1.2-1.037-3.019-0.895-4.087,0.293c-0.565,0.629-0.85,0.94-1.425,1.56c-1.086,1.171-1.065,2.991,0.075,4.093l0,0
						C540.929,363.582,542.79,363.51,543.921,362.292z"/>
				</g>
			</g>
		</g>
	</g>
	<g>
		<g>
			<linearGradient id="SVGID_74_" gradientUnits="userSpaceOnUse" x1="518.7334" y1="82.875" x2="808.5726" y2="82.875">
				<stop  offset="0" style="stop-color:#E0C489"/>
				<stop  offset="0.5165" style="stop-color:#F5ECB7"/>
				<stop  offset="0.6265" style="stop-color:#F2E6B0"/>
				<stop  offset="0.7816" style="stop-color:#EAD69E"/>
				<stop  offset="0.9627" style="stop-color:#DCBC80"/>
				<stop  offset="0.9944" style="stop-color:#D9B77A"/>
			</linearGradient>
			<path fill="url(#SVGID_74_)" d="M555.496,61.06c5.582,4.141,9.686,10.22,10.722,17.557c1.033,7.333-1.16,14.362-4.991,19.865
				c-3.741,5.38-9.749,9.652-16.591,10.894c-7.138,1.302-14.265-0.501-19.839-4.257c-5.611-3.782-9.925-9.633-11.541-16.861
				c-1.616-7.231-0.142-14.317,3.711-20.179c3.823-5.817,10.303-10.299,18.036-11.706C542.41,55.025,550.053,57.02,555.496,61.06z
				 M557.352,79.926c-0.778-5.028-3.614-9.364-7.385-12.083c-3.865-2.783-8.665-3.943-13.438-3.075
				c-5.095,0.928-9.173,3.741-11.822,7.673c-2.622,3.887-3.711,8.938-2.667,13.913c1.043,4.983,4.074,9.158,7.818,11.687
				c3.835,2.585,8.429,3.823,13.255,2.948c4.519-0.823,8.387-3.562,11.051-7.374C556.734,89.937,558.13,84.954,557.352,79.926z"/>
			<linearGradient id="SVGID_75_" gradientUnits="userSpaceOnUse" x1="518.7329" y1="74.4229" x2="808.5761" y2="74.4229">
				<stop  offset="0" style="stop-color:#E0C489"/>
				<stop  offset="0.5165" style="stop-color:#F5ECB7"/>
				<stop  offset="0.6265" style="stop-color:#F2E6B0"/>
				<stop  offset="0.7816" style="stop-color:#EAD69E"/>
				<stop  offset="0.9627" style="stop-color:#DCBC80"/>
				<stop  offset="0.9944" style="stop-color:#D9B77A"/>
			</linearGradient>
			<path fill="url(#SVGID_75_)" d="M620.89,54.191c5.155,4.65,8.66,11.092,8.997,18.492c0.336,7.4-2.503,14.186-6.828,19.304
				c-4.22,4.998-10.587,8.687-17.497,9.274c-7.209,0.617-14.107-1.859-19.281-6.124c-5.211-4.302-8.938-10.535-9.865-17.882
				c-0.92-7.348,1.205-14.265,5.578-19.734c4.336-5.425,11.189-9.271,18.994-9.937C608.465,46.945,615.865,49.653,620.89,54.191z
				 M620.957,73.147c-0.299-5.077-2.705-9.664-6.195-12.727c-3.577-3.135-8.23-4.748-13.049-4.336
				c-5.14,0.438-9.458,2.854-12.454,6.513c-2.967,3.621-4.519,8.544-3.95,13.599c0.564,5.054,3.18,9.502,6.655,12.375
				c3.561,2.937,8.006,4.605,12.876,4.194c4.56-0.389,8.661-2.753,11.665-6.292C619.4,83.054,621.256,78.228,620.957,73.147z"/>
			<linearGradient id="SVGID_76_" gradientUnits="userSpaceOnUse" x1="518.7324" y1="72.0098" x2="808.5729" y2="72.0098">
				<stop  offset="0" style="stop-color:#E0C489"/>
				<stop  offset="0.5165" style="stop-color:#F5ECB7"/>
				<stop  offset="0.6265" style="stop-color:#F2E6B0"/>
				<stop  offset="0.7816" style="stop-color:#EAD69E"/>
				<stop  offset="0.9627" style="stop-color:#DCBC80"/>
				<stop  offset="0.9944" style="stop-color:#D9B77A"/>
			</linearGradient>
			<path fill="url(#SVGID_76_)" d="M686.552,53.533c4.688,5.114,7.572,11.859,7.209,19.255c-0.362,7.4-3.83,13.894-8.615,18.578
				c-4.676,4.579-11.361,7.646-18.286,7.579c-7.224-0.067-13.85-3.18-18.593-7.916c-4.773-4.773-7.894-11.335-8.118-18.735
				c-0.225-7.407,2.54-14.089,7.403-19.117c4.822-4.991,11.998-8.178,19.82-8.104C674.873,45.149,681.98,48.539,686.552,53.533z
				 M684.831,72.414c0.18-5.088-1.78-9.876-4.964-13.258c-3.263-3.46-7.744-5.503-12.577-5.552
				c-5.152-0.045-9.671,1.953-12.993,5.313c-3.292,3.322-5.297,8.077-5.211,13.161c0.086,5.088,2.263,9.764,5.45,12.952
				c3.263,3.262,7.527,5.342,12.405,5.387c4.575,0.045,8.874-1.919,12.196-5.159C682.348,82.125,684.647,77.494,684.831,72.414z"/>
			<linearGradient id="SVGID_77_" gradientUnits="userSpaceOnUse" x1="518.7295" y1="74.6406" x2="808.5768" y2="74.6406">
				<stop  offset="0" style="stop-color:#E0C489"/>
				<stop  offset="0.5165" style="stop-color:#F5ECB7"/>
				<stop  offset="0.6265" style="stop-color:#F2E6B0"/>
				<stop  offset="0.7816" style="stop-color:#EAD69E"/>
				<stop  offset="0.9627" style="stop-color:#DCBC80"/>
				<stop  offset="0.9944" style="stop-color:#D9B77A"/>
			</linearGradient>
			<path fill="url(#SVGID_77_)" d="M724.897,81.654c-3.808-0.37-5.712-0.539-9.521-0.853c-0.531,6.472-0.797,9.712-1.328,16.184
				c-0.184,2.237-2.215,3.943-4.542,3.771c-2.256-0.172-4.003-2.167-3.85-4.407c1.217-17.613,1.822-26.423,3.042-44.04
				c0.157-2.312,2.312-3.965,4.747-3.782c0.034,0.004,0.049,0.004,0.082,0.007c5.78,0.438,8.669,0.685,14.441,1.238
				c9.647,0.932,16.542,9.031,15.469,17.868C742.38,76.334,734.104,82.537,724.897,81.654z M716.054,72.526
				c3.857,0.314,5.784,0.486,9.641,0.86c4.542,0.434,8.519-2.667,8.964-6.756c0.464-4.235-2.84-8.141-7.485-8.589
				c-3.943-0.378-5.915-0.554-9.861-0.875C716.81,63.308,716.56,66.38,716.054,72.526z"/>
			<linearGradient id="SVGID_78_" gradientUnits="userSpaceOnUse" x1="518.7339" y1="80.7676" x2="808.5752" y2="80.7676">
				<stop  offset="0" style="stop-color:#E0C489"/>
				<stop  offset="0.5165" style="stop-color:#F5ECB7"/>
				<stop  offset="0.6265" style="stop-color:#F2E6B0"/>
				<stop  offset="0.7816" style="stop-color:#EAD69E"/>
				<stop  offset="0.9627" style="stop-color:#DCBC80"/>
				<stop  offset="0.9944" style="stop-color:#D9B77A"/>
			</linearGradient>
			<path fill="url(#SVGID_78_)" d="M747.266,91.583c1.545-1.452,4.148-1.332,5.638,0.239c2.981,3.143,8.302,7.063,13.625,7.897
				c3.748,0.587,7.348,0.101,9.906-1.119c2.555-1.212,3.883-2.869,4.22-4.71c0.176-0.954,0.071-1.661-0.254-2.48
				c-0.326-0.819-0.88-1.684-1.901-2.626c-1.975-1.795-5.532-3.711-9.962-5.264c-0.06-0.011-0.09-0.015-0.153-0.026
				c-3.524-1.253-6.798-2.664-9.559-4.43c-2.761-1.766-5.076-3.973-6.453-6.801c-0.936-1.941-1.294-4.1-0.999-6.326
				c0.595-4.448,3.831-7.98,7.883-9.94c4.107-1.99,9.292-2.648,14.537-1.792c7.752,1.261,12.851,5.78,16.457,8.975
				c1.612,1.526,1.635,3.98,0.12,5.432c-1.522,1.459-4.138,1.579-5.821,0.052c-3.58-3.24-7.111-6.135-11.982-6.929
				c-3.592-0.583-6.955-0.041-9.326,1.115c-2.372,1.16-3.479,2.664-3.704,4.22c-0.131,0.89-0.06,1.504,0.251,2.155
				c0.307,0.651,0.92,1.422,1.84,2.237c1.849,1.639,5.196,3.359,9.293,4.789c0.063,0.011,0.098,0.015,0.157,0.026
				c3.864,1.396,7.389,2.989,10.217,4.953c2.91,2.024,5.339,4.489,6.581,7.546c0.812,1.99,1.065,4.325,0.62,6.599
				c-0.92,4.703-4.459,8.193-8.66,10.157c-4.148,1.942-9.285,2.675-14.549,1.792c-8.01-1.347-14.261-6.337-18.129-10.247
				C745.668,95.522,745.754,93.005,747.266,91.583z"/>
			<linearGradient id="SVGID_79_" gradientUnits="userSpaceOnUse" x1="518.7363" y1="88.0654" x2="808.5762" y2="88.0654">
				<stop  offset="0" style="stop-color:#E0C489"/>
				<stop  offset="0.5165" style="stop-color:#F5ECB7"/>
				<stop  offset="0.6265" style="stop-color:#F2E6B0"/>
				<stop  offset="0.7816" style="stop-color:#EAD69E"/>
				<stop  offset="0.9627" style="stop-color:#DCBC80"/>
				<stop  offset="0.9944" style="stop-color:#D9B77A"/>
			</linearGradient>
			<path fill="url(#SVGID_79_)" d="M797.89,95.148c2.487-11.833,3.729-17.748,6.217-29.581c0.461-2.2,2.848-3.606,5.245-3.09
				c2.402,0.524,3.91,2.776,3.42,4.968c-2.638,11.799-3.958,17.703-6.596,29.502c-0.505,2.26-2.709,3.606-4.976,3.116
				C798.933,99.574,797.41,97.419,797.89,95.148z M798.252,113.663c-2.222-0.479-3.703-2.626-3.225-4.893
				c0.124-0.587,0.184-0.883,0.307-1.467c0.46-2.196,2.728-3.632,4.979-3.142c2.252,0.486,3.644,2.716,3.153,4.908
				c-0.131,0.583-0.194,0.875-0.325,1.459C802.637,112.791,800.471,114.146,798.252,113.663z"/>
		</g>
	</g>
	<g>
		<g>
			<path fill="#D8842A" d="M554.36,61.06c5.582,4.142,9.686,10.221,10.722,17.557c1.032,7.333-1.16,14.362-4.991,19.865
				c-3.741,5.379-9.75,9.652-16.592,10.894c-7.138,1.302-14.264-0.501-19.838-4.257c-5.612-3.782-9.925-9.633-11.542-16.861
				c-1.616-7.231-0.142-14.317,3.711-20.179c3.823-5.817,10.303-10.299,18.036-11.706C541.274,55.025,548.917,57.02,554.36,61.06z
				 M556.215,79.926c-0.778-5.028-3.614-9.364-7.385-12.083c-3.864-2.784-8.664-3.943-13.438-3.075
				c-5.096,0.928-9.173,3.741-11.822,7.673c-2.623,3.887-3.711,8.938-2.667,13.913c1.044,4.983,4.074,9.158,7.819,11.687
				c3.834,2.585,8.429,3.823,13.254,2.948c4.519-0.823,8.387-3.562,11.051-7.374C555.598,89.937,556.994,84.954,556.215,79.926z"/>
			<path fill="#D8842A" d="M619.753,54.191c5.155,4.65,8.661,11.092,8.997,18.492c0.337,7.4-2.502,14.186-6.827,19.304
				c-4.22,4.998-10.587,8.687-17.497,9.274c-7.209,0.618-14.107-1.859-19.281-6.124c-5.211-4.302-8.938-10.535-9.865-17.882
				c-0.92-7.348,1.205-14.265,5.578-19.734c4.335-5.424,11.189-9.27,18.993-9.936C607.329,46.945,614.729,49.653,619.753,54.191z
				 M619.821,73.147c-0.299-5.077-2.705-9.663-6.195-12.727c-3.576-3.135-8.23-4.748-13.049-4.336
				c-5.14,0.438-9.457,2.854-12.454,6.513c-2.967,3.622-4.52,8.544-3.951,13.599c0.565,5.054,3.18,9.502,6.655,12.375
				c3.562,2.937,8.006,4.605,12.876,4.194c4.561-0.389,8.661-2.753,11.665-6.292C618.265,83.053,620.12,78.228,619.821,73.147z"/>
			<path fill="#D8842A" d="M685.416,53.533c4.688,5.114,7.572,11.859,7.209,19.255c-0.362,7.399-3.831,13.894-8.615,18.578
				c-4.677,4.579-11.361,7.647-18.286,7.58c-7.225-0.067-13.85-3.18-18.594-7.916c-4.773-4.774-7.893-11.335-8.118-18.735
				c-0.225-7.407,2.541-14.089,7.404-19.117c4.822-4.991,11.997-8.178,19.82-8.103C673.736,45.149,680.845,48.539,685.416,53.533z
				 M683.695,72.414c0.18-5.088-1.781-9.876-4.965-13.258c-3.262-3.46-7.743-5.503-12.577-5.551
				c-5.151-0.045-9.671,1.953-12.992,5.312c-3.292,3.322-5.298,8.077-5.212,13.161c0.086,5.088,2.264,9.764,5.451,12.951
				c3.262,3.262,7.527,5.342,12.405,5.387c4.575,0.045,8.874-1.919,12.195-5.159C681.211,82.125,683.512,77.494,683.695,72.414z"/>
			<path fill="#D8842A" d="M723.762,81.654c-3.809-0.371-5.713-0.539-9.521-0.853c-0.531,6.472-0.797,9.711-1.328,16.184
				c-0.184,2.237-2.215,3.943-4.542,3.771c-2.256-0.172-4.003-2.166-3.85-4.407c1.216-17.613,1.822-26.423,3.042-44.04
				c0.157-2.312,2.312-3.966,4.747-3.782c0.033,0.003,0.049,0.003,0.082,0.007c5.78,0.438,8.668,0.685,14.44,1.238
				c9.648,0.932,16.543,9.031,15.47,17.867C741.244,76.334,732.969,82.537,723.762,81.654z M714.918,72.526
				c3.857,0.314,5.783,0.486,9.641,0.86c4.542,0.434,8.519-2.667,8.964-6.756c0.464-4.235-2.84-8.14-7.486-8.589
				c-3.942-0.378-5.914-0.554-9.861-0.875C715.674,63.308,715.423,66.379,714.918,72.526z"/>
			<path fill="#D8842A" d="M746.13,91.583c1.545-1.452,4.148-1.332,5.638,0.239c2.981,3.143,8.301,7.063,13.625,7.897
				c3.748,0.587,7.347,0.101,9.906-1.119c2.555-1.212,3.883-2.87,4.22-4.71c0.176-0.954,0.071-1.661-0.255-2.48
				c-0.325-0.819-0.879-1.684-1.9-2.626c-1.975-1.796-5.533-3.711-9.962-5.264c-0.061-0.011-0.09-0.015-0.153-0.026
				c-3.524-1.253-6.798-2.664-9.559-4.429c-2.761-1.766-5.077-3.973-6.453-6.801c-0.936-1.942-1.295-4.1-0.999-6.326
				c0.595-4.448,3.831-7.979,7.882-9.94c4.108-1.99,9.293-2.648,14.538-1.792c7.751,1.261,12.851,5.78,16.457,8.975
				c1.612,1.526,1.635,3.98,0.119,5.432c-1.522,1.459-4.137,1.579-5.82,0.052c-3.58-3.24-7.112-6.135-11.983-6.928
				c-3.591-0.583-6.954-0.041-9.326,1.115c-2.371,1.16-3.479,2.664-3.703,4.22c-0.131,0.891-0.061,1.504,0.25,2.155
				c0.308,0.651,0.921,1.421,1.841,2.237c1.849,1.639,5.196,3.359,9.293,4.789c0.063,0.011,0.098,0.015,0.157,0.026
				c3.864,1.396,7.389,2.989,10.217,4.953c2.91,2.024,5.338,4.489,6.58,7.545c0.813,1.99,1.066,4.325,0.621,6.6
				c-0.92,4.702-4.459,8.193-8.66,10.157c-4.149,1.941-9.285,2.675-14.549,1.792c-8.01-1.347-14.261-6.337-18.129-10.247
				C744.532,95.522,744.618,93.004,746.13,91.583z"/>
			<path fill="#D8842A" d="M796.753,95.148c2.488-11.833,3.73-17.748,6.218-29.581c0.46-2.2,2.848-3.606,5.245-3.09
				c2.401,0.524,3.909,2.776,3.419,4.968c-2.637,11.799-3.958,17.703-6.595,29.501c-0.505,2.26-2.709,3.606-4.976,3.117
				C797.797,99.574,796.274,97.419,796.753,95.148z M797.116,113.663c-2.222-0.479-3.704-2.626-3.225-4.894
				c0.123-0.587,0.183-0.883,0.307-1.466c0.46-2.196,2.728-3.633,4.979-3.143c2.252,0.486,3.644,2.716,3.153,4.908
				c-0.131,0.583-0.194,0.875-0.325,1.459C801.501,112.791,799.335,114.145,797.116,113.663z"/>
		</g>
	</g>
	<path fill="#FFFFFF" d="M327.451,97.354c0.918-1.18,1.208-19.9-18.391-17.769c-4.88,0.531-10.928,6.8-11.318,12.155
		c-2.321-1.743-5.482-2.466-8.307-1.653c-4.15,1.194-7.067,5.557-6.51,9.737c-4.617-1.783-10.133-0.69-13.934,2.366h70.378
		C339.37,93.868,331.013,93.466,327.451,97.354z"/>
	<path fill="#FFFFFF" d="M1067.396,85.967c0.918-1.18,1.208-19.9-18.391-17.769c-4.88,0.531-10.928,6.8-11.318,12.155
		c-2.321-1.743-5.482-2.466-8.307-1.653c-4.15,1.194-7.067,5.557-6.51,9.737c-4.617-1.783-10.133-0.69-13.934,2.366h70.378
		C1079.315,82.481,1070.958,82.08,1067.396,85.967z"/>
	<path fill="#FFFFFF" d="M1237.396,346.749c0.918-1.18,1.208-19.9-18.391-17.769c-4.88,0.531-10.928,6.8-11.318,12.155
		c-2.321-1.743-5.482-2.466-8.307-1.653c-4.15,1.194-7.067,5.557-6.51,9.737c-4.617-1.783-10.133-0.69-13.934,2.366h70.378
		C1249.315,343.263,1240.958,342.861,1237.396,346.749z"/>
	<path fill="#FFFFFF" d="M309.574,250.352c-0.238-3.273-3.935-7.104-6.917-7.429c-8.306-0.903-10.766,4.319-11.307,7.848h25.663
		c-0.651-0.66-1.456-1.17-2.361-1.43C312.925,248.844,310.993,249.287,309.574,250.352z"/>
	<path fill="#FFFFFF" d="M84.444,208.72c-3.661-1.124-7.758-0.123-10.767,2.286c-0.505-7.4-8.608-14.75-14.67-16.798
		c-6.319-2.134-13.388,0.279-18.68,4.453c-4.406,3.475-8.116,8.83-7.422,14.531c0.132,1.088,0.43,2.115,0.847,3.085H92.13
		C90.792,212.75,87.96,209.799,84.444,208.72z"/>
	<text transform="matrix(1 0 0 1 323.3496 242.8198)" fill="#D8842A" font-family="'MollenPersonalUse-Bold'" font-size="47">La pgina no ha sido encontrada</text>
</g>
</svg>
