<?xml version="1.0" encoding="utf-8"?>
<!-- Generator: Adobe Illustrator 16.0.3, SVG Export Plug-In . SVG Version: 6.00 Build 0)  -->
<!DOCTYPE svg PUBLIC "-//W3C//DTD SVG 1.1//EN" "http://www.w3.org/Graphics/SVG/1.1/DTD/svg11.dtd">
<svg version="1.1" id="Capa_1" xmlns="http://www.w3.org/2000/svg" xmlns:xlink="http://www.w3.org/1999/xlink" x="0px" y="0px"
	 width="450px" height="450px" viewBox="0 0 450 450" enable-background="new 0 0 450 450" xml:space="preserve">
<circle fill="#6586A8" cx="225" cy="225" r="206.502"/>
<g>
	<polygon fill="#FFFFFF" points="161,101 261,101 261,242.458 161,244.314 	"/>
	<path fill="#FFC010" d="M155.676,91c0,0,103.795,0,108.908,0c5.112,0,4.416,5.688,4.416,5.688s0,146.851,0,152.745
		c0,5.895-4.818,5.567-4.818,5.567H163.701l-15.656-4.553l2.069-153.536C150.114,90.615,155.676,91,155.676,91z M162,104v134h94.512
		l0.568-109.607L220.865,104H162z"/>
	<rect x="193" y="136" fill="#FFC010" width="52" height="7"/>
	<rect x="193" y="159" fill="#FFC010" width="52" height="7"/>
	<rect x="193" y="184" fill="#FFC010" width="52" height="7"/>
	<rect x="193" y="207" fill="#FFC010" width="52" height="8"/>
	<circle fill="#FFC010" cx="177.619" cy="139.508" r="6.888"/>
	<circle fill="#FFC010" cx="177.619" cy="162.231" r="6.888"/>
	<circle fill="#FFC010" cx="177.619" cy="187.795" r="6.888"/>
	<circle fill="#FFC010" cx="177.619" cy="211.087" r="6.888"/>
	<path fill="#0B8FD1" d="M180.909,143.248l12.687-10.676c0,0,1.551-1.396,0.059-3.1c-1.491-1.705-3-0.953-3.55-0.403
		c-0.55,0.551-10.249,8.509-10.249,8.509s-0.488,0.474-1.065-0.077c-0.577-0.55-4.572-4.207-4.572-4.207s-1.358-1.199-2.867,0.559
		c-1.509,1.757-0.381,2.601-0.381,2.601l6.613,6.604C177.583,143.059,179.148,144.653,180.909,143.248z"/>
	<path fill="#0B8FD1" d="M180.909,165.972l12.687-10.675c0,0,1.551-1.396,0.059-3.101c-1.491-1.704-3-0.953-3.55-0.403
		c-0.55,0.551-10.249,8.509-10.249,8.509s-0.488,0.474-1.065-0.076c-0.577-0.551-4.572-4.208-4.572-4.208s-1.358-1.199-2.867,0.559
		c-1.509,1.757-0.381,2.601-0.381,2.601l6.613,6.604C177.583,165.782,179.148,167.377,180.909,165.972z"/>
	<path fill="#A49BAC" d="M194.479,86.723c0,0,1.807-9.602,12.79-9.602c10.984,0,13.168,9.879,13.168,9.879H241v5h3v23h-73V92h5
		v-5.537L194.479,86.723z M176,95h-2v18h69V95h-2v14h-65V95z M196.579,87h21.019c0,0-1.313-7.882-10.332-7.882
		C198.247,79.118,196.579,87,196.579,87z"/>
</g>
<g>
	<polygon fill="#A07548" points="39.817,260.947 48.106,263.943 48.023,347.236 114.878,371.438 182,347.036 182,264.743 
		171.608,261.547 174,260.814 174,178.453 105.277,157.947 40.021,177.921 	"/>
	<polygon fill="#BB8C58" points="39.884,177.921 108.462,202.777 108.019,285.16 39.817,260.947 	"/>
	<polygon fill="#BB8C58" points="114.862,371.438 48.023,347.236 48.106,263.943 116.319,289.378 	"/>
	<polygon fill="#CB9E67" points="108.739,202.773 174,178.453 174,260.814 108.435,285.16 	"/>
	<polygon fill="#CB9E67" points="116.335,289.394 182,264.743 182,347.036 114.887,371.438 	"/>
</g>
<polygon fill="#E5AE15" points="64,186.78 64,209.052 71.107,206.798 78.375,213.028 78.215,191.832 "/>
<polygon fill="#D19C18" points="64.077,186.78 126.892,164.427 140.402,168.463 78.263,191.832 "/>
<path fill="#686452" d="M320.348,190.375c0,0,4.135-4.979-2.162-6.305c-6.297-1.326-23.419-6.865-43.701,6.193l-0.988,13.039
	l-7.056-2.991l-7.399-8.655l3.523-9.94l36.589-13.826l20.78,6.362l7.969,3.082l3.098,2.386v3.877l-6.527,4.823L320.348,190.375z"/>
<path fill="#CB9E67" d="M301.64,241.399c0,0,18.56-11.933,18.56-22.67s-0.929-17.63,0-26.645l3.05-5.568l-7.026-11.269
	l-27.441-0.662l-13.521,10.074l-2.387,17.499c0,0-9.016-11.135-11.666-9.147c-2.651,1.989-2.121,9.281-2.121,9.281
	s-0.663,12.594,9.279,13.124c0,0,0.795,17.898-8.484,31.154l19.753,18.028l15.643,4.772l4.641-2.121l2.12-9.015
	C302.037,258.234,297.396,248.69,301.64,241.399z"/>
<path fill="#D7B50B" d="M259.043,191.651c0,0,1.335-8.749,30.467-13.124s39.174-0.1,40.864,2.287
	c1.689,2.385-8.319,8.882-8.319,8.882s28.039-10.34,4.641-14.251c0,0-8.352-38.378-40.168-32.513
	C254.711,148.799,253.033,177.832,259.043,191.651z"/>
<path fill="#CB9E67" d="M361.428,200.965c0,0,14.317,14.583,15.511,26.912c1.192,12.328,0,14.449,0,14.449l-23.598,14.066
	l-8.882,33.525l56.605-18.56c0,0,15.512-6.4,15.113-14.966s-4.375-31.036-28.038-51.517c0,0-6.828-6.297-10.407-14.119
	c-3.579-7.821-3.049-17.498-21.343-25.188c0,0-3.943-0.961-6.33,1.624c0,0-4.771-1.292-7.556,4.474c0,0-6.264-0.1-5.568,5.966
	c0,0-11.533-2.585-11.931,5.766c0,0-0.364,2.453,4.341,1.524c4.706-0.927,12.991,7.093,13.257,7.688
	C342.867,193.209,349.1,204.213,361.428,200.965z"/>
<path fill="#8BE523" d="M266.012,235.2c0,0-11.467-3.48-12.361,3.977c-0.896,7.457-3.348,10.489-3.348,10.489
	s-1.673,1.269,0.017,3.854c0,0-10.2,2.605-20.806,19.441c0,0,4.357,62.963,71.17,95.575L335,355.009v-60.054
	c0,0,5.971-3.64,15.172-6.656c0,0-1.053-25.815,10.051-35.778c0,0-36.434-6.218-58.042,0.676l-2-1.458c0,0-1.189,7.225-4.471,12.395
	c0,0-15.822,0.01-33.421-21.466C262.289,242.667,265.945,238.381,266.012,235.2z"/>
<path fill="#E27A24" d="M231.347,270.385c0,0,2.875-4.649,7.833-9.428c4.956-4.777,47.743,16.813,59.674,35.904
	c0,0,5.643-30.912,1.296-45.098c0,0,0.517,1.298,5.15,0.609c0,0,24.7,11.826,29.7,42.582v60.45l-34.316,13.131
	C300.684,368.536,297.6,342.455,231.347,270.385z"/>
<path fill="#B2B2B2" d="M335,326.075c0,0-10.161,10.622-49.28,11.823c0,0,3.196,4.751,5.128,8.152c0,0,33.152-3.371,44.152-12.917
	V326.075z"/>
<path fill="#B2B2B2" d="M293.899,351.742c0,0,31.101-3.794,41.101-12.245v1.591c0,0-6.457,8.946-39.828,12.875L293.899,351.742z"/>
</svg>
